<svg width="162.403" height="107.9" viewBox="0 0 162.403 107.9" xmlns="http://www.w3.org/2000/svg"><g id="svgGroup" stroke-linecap="round" fill-rule="evenodd" font-size="9pt" stroke="#000" stroke-width="1.0mm" fill="#000" style="stroke:#000;stroke-width:1.0mm;fill:#000"><path d="M 43.8 94.8 L 43.8 88.1 A 5.075 5.075 0 0 1 43.846 87.387 Q 44.044 86 45.1 86 A 2.027 2.027 0 0 1 46.021 86.239 Q 46.682 86.575 47.385 87.381 A 9.09 9.09 0 0 1 47.65 87.7 A 171.879 171.879 0 0 1 47.968 88.102 Q 48.96 89.359 49.089 89.58 A 0.372 0.372 0 0 1 49.1 89.6 L 54.5 62.9 Q 50 68.3 47.4 70.15 Q 44.8 72 41.15 72 A 6.42 6.42 0 0 1 36.119 69.691 A 9.403 9.403 0 0 1 35.3 68.6 Q 33.1 65.2 33.1 60.9 A 31.351 31.351 0 0 1 33.986 53.775 Q 34.794 50.323 36.337 46.497 A 75.502 75.502 0 0 1 39.4 39.9 Q 36.728 40.568 35.012 40.599 A 9.117 9.117 0 0 1 34.85 40.6 A 2.62 2.62 0 0 1 33.543 40.28 Q 33.007 39.979 32.621 39.394 A 4.098 4.098 0 0 1 32.3 38.8 A 6.916 6.916 0 0 1 32.104 38.362 Q 31.806 37.641 31.346 36.259 A 93.386 93.386 0 0 1 31.05 35.35 A 66.904 66.904 0 0 1 30.761 34.429 Q 30.2 32.588 30.2 32.1 Q 30.2 30.689 31.972 30.783 A 4.92 4.92 0 0 1 32.2 30.8 L 33.7 30.8 Q 34.6 30.8 37.5 29.85 A 28.321 28.321 0 0 1 39.116 29.37 Q 40.65 28.967 41.747 28.91 A 6.76 6.76 0 0 1 42.1 28.9 Q 43.8 28.9 45.35 30.25 A 13.286 13.286 0 0 1 47.015 32.006 A 17.596 17.596 0 0 1 48.2 33.7 A 8.773 8.773 0 0 1 49.251 36.11 A 7.669 7.669 0 0 1 49.5 38.05 Q 49.5 40.271 45.265 49.696 A 238.444 238.444 0 0 1 45.15 49.95 Q 40.907 59.363 40.803 60.261 A 0.35 0.35 0 0 0 40.8 60.3 Q 40.8 61 41.6 61 A 1.924 1.924 0 0 0 42.459 60.728 Q 44.243 59.777 48.029 55.507 A 95.853 95.853 0 0 0 48.3 55.2 Q 49.4 53.9 50.75 51.75 Q 51.784 50.104 52.436 49.074 A 303.167 303.167 0 0 1 52.8 48.5 Q 53.328 47.671 54.168 45.932 A 82.273 82.273 0 0 0 54.75 44.7 A 517.634 517.634 0 0 1 55.256 43.61 Q 55.893 42.244 56.225 41.557 A 31.673 31.673 0 0 1 56.4 41.2 A 123.809 123.809 0 0 0 58.568 36.386 A 100.761 100.761 0 0 0 59.7 33.6 A 3.767 3.767 0 0 1 60.214 32.779 A 2.352 2.352 0 0 1 62.1 31.9 A 2.869 2.869 0 0 1 63.674 32.39 Q 64.123 32.68 64.555 33.14 A 7.275 7.275 0 0 1 65.1 33.8 Q 66.472 35.662 66.5 37.523 A 5.157 5.157 0 0 1 66.5 37.6 A 16.735 16.735 0 0 1 66.319 39.569 Q 65.675 44.39 62.734 58.572 A 1495.559 1495.559 0 0 1 61.3 65.4 A 46786.737 46786.737 0 0 0 60.073 71.185 Q 56.032 90.238 55.55 92.6 Q 55 95.3 54.5 104.8 A 6.772 6.772 0 0 1 54.42 105.893 Q 54.103 107.82 52.533 107.897 A 2.713 2.713 0 0 1 52.4 107.9 Q 51.7 107.9 51.1 107.6 A 10.971 10.971 0 0 1 44.386 99.806 Q 43.837 97.715 43.803 95.145 A 25.831 25.831 0 0 1 43.8 94.8 Z M 129.724 63.324 A 34.551 34.551 0 0 0 130 58.8 Q 130 55.846 129.668 55.189 A 0.272 0.272 0 0 0 129.45 55 A 0.551 0.551 0 0 0 129.21 55.08 Q 128.461 55.481 126.25 57.9 A 32.642 32.642 0 0 1 125.463 58.734 Q 123.437 60.8 122.55 60.8 Q 121.73 60.8 121.551 60.129 A 1.664 1.664 0 0 1 121.5 59.7 Q 121.5 59.3 121.6 58.9 A 116.87 116.87 0 0 0 123.685 51.16 Q 125.4 43.71 125.4 38.2 A 33.738 33.738 0 0 0 125.37 36.755 Q 124.999 28.1 120 28.1 A 5.608 5.608 0 0 0 118.17 28.397 Q 115.977 29.148 114.4 31.8 Q 112.9 34.3 110.6 39.55 Q 108.3 44.8 107.25 46.65 A 24.041 24.041 0 0 1 107.132 46.856 Q 106.177 48.5 105.8 48.5 A 0.235 0.235 0 0 1 105.607 48.389 Q 105.45 48.174 105.412 47.54 A 7.478 7.478 0 0 1 105.4 47.1 A 5.741 5.741 0 0 1 105.441 46.59 Q 105.777 43.523 108.846 24.361 A 5956.107 5956.107 0 0 1 109.9 17.8 A 11.297 11.297 0 0 0 113.12 12.681 A 14.368 14.368 0 0 0 113.7 8.5 Q 113.7 6.2 112.9 3.1 A 11.115 11.115 0 0 0 112.679 2.348 Q 112.281 1.159 111.728 0.573 A 1.648 1.648 0 0 0 110.5 0 A 1.32 1.32 0 0 0 109.46 0.469 Q 109.261 0.698 109.114 1.038 A 3.944 3.944 0 0 0 108.9 1.7 A 49.378 49.378 0 0 1 107.516 5.255 Q 106.352 7.947 104.742 10.919 A 107.195 107.195 0 0 1 101.1 17.1 A 4.159 4.159 0 0 0 100.879 17.424 Q 100.716 17.691 100.623 17.945 A 1.906 1.906 0 0 0 100.5 18.6 A 1.249 1.249 0 0 0 100.802 19.462 Q 101.369 20.1 103 20.1 A 44.155 44.155 0 0 1 102.932 20.451 Q 102.505 22.596 101.4 27.2 A 27.353 27.353 0 0 0 101.315 27.552 Q 101.157 28.222 100.874 29.518 A 401.006 401.006 0 0 0 100.65 30.55 A 280.906 280.906 0 0 0 100.61 30.739 Q 100.093 33.143 99.9 34.25 A 243.176 243.176 0 0 1 99.872 34.413 Q 99.691 35.449 99.146 38.529 A 10587.159 10587.159 0 0 1 98.85 40.2 A 45.049 45.049 0 0 0 98.492 42.623 Q 98.243 44.678 98.12 47.06 A 96.097 96.097 0 0 0 98 52 A 37.157 37.157 0 0 0 98.012 52.958 Q 98.157 58.544 100 62.6 A 62.211 62.211 0 0 0 101.278 65.6 Q 103.27 69.927 104.942 71.282 A 2.358 2.358 0 0 0 106.4 71.9 A 0.782 0.782 0 0 0 106.777 71.799 Q 107.387 71.468 107.959 70.052 A 13.965 13.965 0 0 0 108.3 69.1 Q 115.6 41.6 116.2 41.6 Q 116.369 41.6 116.395 42.739 A 20.025 20.025 0 0 1 116.4 43.2 A 8.176 8.176 0 0 1 116.352 43.996 Q 116.205 45.454 115.608 48.375 A 150.386 150.386 0 0 1 115.2 50.3 A 32.434 32.434 0 0 0 114.945 51.592 A 28.207 28.207 0 0 0 114.5 56.5 A 29.173 29.173 0 0 0 114.506 57.084 A 22.987 22.987 0 0 0 120.1 72.1 A 7.958 7.958 0 0 0 120.65 72.603 Q 121.975 73.7 123.3 73.7 A 2.369 2.369 0 0 0 124.3 73.455 Q 125.163 73.053 126.166 71.991 A 15.769 15.769 0 0 0 127.1 70.9 Q 129.105 67.996 129.724 63.324 Z M 19.9 28.8 L 27.8 28.4 A 3.379 3.379 0 0 1 29.193 28.666 Q 30.639 29.314 30.86 31.543 A 8.688 8.688 0 0 1 30.9 32.4 A 4.872 4.872 0 0 1 30.761 33.602 A 3.188 3.188 0 0 1 29.6 35.4 A 11.146 11.146 0 0 1 27.005 37.11 Q 23.841 38.661 18.6 39.4 A 230.306 230.306 0 0 0 18.031 45.553 Q 17.816 48.31 17.708 50.721 A 100.873 100.873 0 0 0 17.6 55.2 A 68.996 68.996 0 0 0 17.622 57.015 Q 17.716 60.544 18.205 61.296 A 0.367 0.367 0 0 0 18.5 61.5 Q 19.015 61.5 21.735 59.148 A 95.149 95.149 0 0 0 22.7 58.3 Q 26.3 55.1 26.7 55.1 A 1.124 1.124 0 0 1 27.668 55.709 Q 28.275 56.671 28.379 59.155 A 26.217 26.217 0 0 1 28.4 60.25 Q 28.4 65.4 26.5 70.4 Q 25.556 72.885 24.217 74.135 A 4.435 4.435 0 0 1 21.1 75.4 A 4.64 4.64 0 0 1 19.237 74.995 A 6.525 6.525 0 0 1 18.1 74.35 Q 16.956 73.549 16.248 72.748 A 6.167 6.167 0 0 1 15.85 72.25 Q 15.276 71.446 14.35 70.027 A 165.703 165.703 0 0 1 13.75 69.1 A 273.182 273.182 0 0 0 13.281 68.373 Q 12.447 67.085 12.163 66.686 A 4.523 4.523 0 0 0 12.1 66.6 Q 9.551 63.106 9.186 59.657 A 11.029 11.029 0 0 1 9.15 59.25 Q 8.959 56.456 8.914 52.929 A 175.335 175.335 0 0 1 8.9 50.7 A 91.698 91.698 0 0 1 9.09 44.935 A 115.952 115.952 0 0 1 9.5 40.1 A 7.802 7.802 0 0 1 6.665 39.501 A 7.122 7.122 0 0 1 4.35 37.9 Q 2.3 35.8 1.15 32.85 Q 0 29.9 0 29.5 A 1.6 1.6 0 0 1 0.087 28.951 Q 0.361 28.2 1.5 28.2 L 11.1 28.8 Q 11.483 26.427 12.218 22.647 A 455.754 455.754 0 0 1 12.7 20.2 A 385.85 385.85 0 0 0 13.278 17.436 Q 14.262 12.633 14.383 11.228 A 3.936 3.936 0 0 0 14.4 10.9 L 14.2 9 Q 14.2 7.449 15.893 7.402 A 3.87 3.87 0 0 1 16 7.4 A 4.677 4.677 0 0 1 17.332 7.613 Q 18.508 7.964 19.94 8.892 A 18.16 18.16 0 0 1 20.4 9.2 Q 23 11 23 12.6 A 2.546 2.546 0 0 1 22.967 12.974 Q 22.847 13.76 22.3 15.4 Q 21.4 18.6 19.9 28.8 Z M 161.623 65.662 A 21.554 21.554 0 0 0 162.4 59.6 A 35.818 35.818 0 0 0 162.378 58.407 Q 162.307 56.269 162 52.9 Q 159.357 56.163 156.697 58.492 A 28.88 28.88 0 0 1 152.55 61.55 A 19.384 19.384 0 0 1 146.373 63.893 A 27.045 27.045 0 0 1 141 64.4 A 6.04 6.04 0 0 1 139.482 64.226 Q 136.9 63.554 136.9 60.3 A 7.153 7.153 0 0 1 136.951 59.461 Q 137.042 58.69 137.296 57.839 A 14.468 14.468 0 0 1 137.9 56.2 L 138.85 54.3 A 11.687 11.687 0 0 1 138.877 54.247 Q 139.232 53.546 140.05 52.15 A 354.699 354.699 0 0 0 140.144 51.991 Q 140.805 50.862 140.964 50.57 A 2.437 2.437 0 0 0 141 50.5 A 19.357 19.357 0 0 0 141.197 51.053 Q 142.065 53.376 143.234 54.562 A 3.788 3.788 0 0 0 146 55.8 Q 149.472 55.8 154.999 49.823 A 68.293 68.293 0 0 0 158.1 46.2 Q 162.2 41.1 162.2 38.15 Q 162.2 36.214 161.102 34.343 A 11.689 11.689 0 0 0 159.65 32.4 Q 158.206 30.814 156.81 30.127 A 4.747 4.747 0 0 0 154.7 29.6 Q 152.3 29.6 149.3 31.4 A 44.417 44.417 0 0 0 149.207 31.457 Q 146.267 33.23 144.2 35.1 A 2.714 2.714 0 0 0 143.98 34.572 Q 143.548 33.8 142.7 33.8 A 1.428 1.428 0 0 0 141.947 34.009 Q 140.84 34.679 140.399 37.501 A 22.08 22.08 0 0 0 140.2 39.3 A 41.868 41.868 0 0 0 137.691 42.513 A 51.462 51.462 0 0 0 134.35 47.95 A 39.924 39.924 0 0 0 133.599 49.423 Q 132.397 51.911 131.956 53.825 A 9.083 9.083 0 0 0 131.7 55.85 A 21.159 21.159 0 0 0 131.721 56.786 A 18.394 18.394 0 0 0 132.5 61.4 A 56.273 56.273 0 0 0 132.591 61.678 Q 133.999 65.955 135.711 68.818 A 17.446 17.446 0 0 0 137.65 71.5 A 8.603 8.603 0 0 0 140.26 73.468 Q 141.701 74.186 143.546 74.517 A 19.6 19.6 0 0 0 147 74.8 A 22.99 22.99 0 0 0 152.691 74.156 Q 159.654 72.373 161.623 65.662 Z M 92.821 66.118 A 20.645 20.645 0 0 0 95.2 56.6 Q 95.2 54.9 95 54 Q 94.838 54.163 93.883 55.019 A 342.901 342.901 0 0 1 93.4 55.45 A 315.849 315.849 0 0 0 92.782 56.003 Q 92.145 56.575 91.694 56.988 A 69.881 69.881 0 0 0 91.3 57.35 A 27.692 27.692 0 0 1 91.275 57.374 Q 90.573 58.024 89.1 59.3 Q 80.9 66.1 77.1 66.1 Q 74.9 66.1 74.9 62.8 Q 74.9 56.4 77.65 49.55 Q 80.4 42.7 85.3 37.3 A 2.474 2.474 0 0 1 85.342 37.526 Q 85.421 38.058 85.5 39.4 Q 86.266 47.593 87.559 49.513 A 1.077 1.077 0 0 0 88.4 50.1 A 0.905 0.905 0 0 0 88.418 50.1 Q 89.406 50.081 90 47.9 Q 91.763 41.511 92.231 37.603 A 21.319 21.319 0 0 0 92.4 35.1 Q 92.4 31 91 29.7 A 17.978 17.978 0 0 0 90.53 29.313 Q 88.124 27.4 86.3 27.4 A 6.061 6.061 0 0 0 85.568 27.443 A 4.48 4.48 0 0 0 83 28.6 A 31.237 31.237 0 0 0 77.813 34.001 A 39.031 39.031 0 0 0 73.45 41.4 A 52.811 52.811 0 0 0 72.772 42.951 Q 69.8 50.06 69.8 56.15 Q 69.8 62.9 72.75 68.95 A 18.681 18.681 0 0 0 73.207 69.828 Q 76.077 75 80.7 75 Q 87 75 91.1 69 A 26.659 26.659 0 0 0 92.821 66.118 Z M 146.1 47.5 A 2.099 2.099 0 0 0 147.024 47.243 Q 148.254 46.627 150.07 44.533 A 34.497 34.497 0 0 0 150.85 43.6 A 43.957 43.957 0 0 0 151.921 42.224 Q 153.537 40.052 153.897 38.856 A 2.135 2.135 0 0 0 154 38.25 A 2.949 2.949 0 0 0 153.959 37.73 Q 153.796 36.826 152.997 36.801 A 1.47 1.47 0 0 0 152.95 36.8 A 1.478 1.478 0 0 0 152.376 36.943 Q 151.498 37.325 150.034 38.725 A 29.775 29.775 0 0 0 149.35 39.4 A 84.589 84.589 0 0 0 147.653 41.179 Q 146.261 42.683 145.3 43.9 Q 145.139 44.87 145.108 45.448 A 4.735 4.735 0 0 0 145.1 45.7 A 4.84 4.84 0 0 0 145.135 46.312 Q 145.218 46.954 145.493 47.25 A 0.792 0.792 0 0 0 146.1 47.5 Z" vector-effect="non-scaling-stroke"/></g></svg>