<svg xmlns="http://www.w3.org/2000/svg" viewBox="12 12 332.95 74.33" role="img" aria-label="Fortuna">
  <g fill="#000000">
    <path d="M 12 12 L 62.72 12 L 62.72 26.22 L 30.8 26.22 L 30.8 39.78 L 60.83 39.78 L 60.83 54 L 30.8 54 L 30.8 84.91 L 12 84.91 L 12 12 Z"/>
    <path transform="translate(-13,0)" d="M 101.54 41.41 Q 95.73 41.41 92.69 45.58 Q 89.64 49.75 89.64 57.61 Q 89.64 65.47 92.69 69.66 Q 95.73 73.83 101.54 73.83 Q 107.26 73.83 110.28 69.66 Q 113.31 65.47 113.31 57.61 Q 113.31 49.75 110.28 45.58 Q 107.26 41.41 101.54 41.41 Z M 101.54 28.91 Q 115.65 28.91 123.59 36.53 Q 131.53 44.14 131.53 57.61 Q 131.53 71.09 123.59 78.72 Q 115.65 86.33 101.54 86.33 Q 87.39 86.33 79.4 78.72 Q 71.42 71.09 71.42 57.61 Q 71.42 44.14 79.4 36.53 Q 87.39 28.91 101.54 28.91 Z"/>
    <path transform="translate(-28,0)" d="M 184.86 45.11 Q 182.56 44.03 180.28 43.53 Q 178.01 43.02 175.71 43.02 Q 168.98 43.02 165.34 47.34 Q 161.7 51.66 161.7 59.7 L 161.7 84.91 L 144.23 84.91 L 144.23 30.22 L 161.7 30.22 L 161.7 39.2 Q 165.07 33.83 169.43 31.38 Q 173.81 28.91 179.92 28.91 Q 180.79 28.91 181.81 28.98 Q 182.84 29.05 184.79 29.3 L 184.86 45.11 Z"/>
    <path transform="translate(-43,0)" d="M 212.62 14.69 L 212.62 30.22 L 230.66 30.22 L 230.66 42.72 L 212.62 42.72 L 212.62 65.91 Q 212.62 69.72 214.14 71.06 Q 215.66 72.41 220.16 72.41 L 229.14 72.41 L 229.14 84.91 L 214.14 84.91 Q 203.8 84.91 199.47 80.59 Q 195.16 76.27 195.16 65.91 L 195.16 42.72 L 186.45 42.72 L 186.45 30.22 L 195.16 30.22 L 195.16 14.69 L 212.62 14.69 Z"/>
    <path transform="translate(-56,0)" d="M 240.76 63.61 L 240.76 30.22 L 258.33 30.22 L 258.33 35.69 Q 258.33 40.12 258.29 46.84 Q 258.24 53.56 258.24 55.8 Q 258.24 62.39 258.58 65.3 Q 258.93 68.2 259.76 69.53 Q 260.82 71.23 262.55 72.17 Q 264.29 73.09 266.54 73.09 Q 272.01 73.09 275.13 68.89 Q 278.26 64.69 278.26 57.22 L 278.26 30.22 L 295.74 30.22 L 295.74 84.91 L 278.26 84.91 L 278.26 77 Q 274.3 81.78 269.88 84.06 Q 265.46 86.33 260.15 86.33 Q 250.66 86.33 245.71 80.52 Q 240.76 74.7 240.76 63.61 Z"/>
    <path transform="translate(-76,0)" d="M 367.51 51.61 L 367.51 84.91 L 349.93 84.91 L 349.93 79.48 L 349.93 59.42 Q 349.93 52.34 349.62 49.66 Q 349.31 46.97 348.53 45.7 Q 347.49 43.98 345.73 43.03 Q 343.98 42.08 341.73 42.08 Q 336.26 42.08 333.13 46.31 Q 330.01 50.53 330.01 58 L 330.01 84.91 L 312.54 84.91 L 312.54 30.22 L 330.01 30.22 L 330.01 38.22 Q 333.96 33.44 338.4 31.17 Q 342.85 28.91 348.23 28.91 Q 357.7 28.91 362.6 34.72 Q 367.51 40.52 367.51 51.61 Z"/>
    <path transform="translate(-90,0)" d="M 408.23 60.3 Q 402.76 60.3 400 62.16 Q 397.25 64 397.25 67.62 Q 397.25 70.94 399.47 72.83 Q 401.7 74.7 405.65 74.7 Q 410.58 74.7 413.95 71.17 Q 417.33 67.62 417.33 62.3 L 417.33 60.3 L 408.23 60.3 Z M 434.95 53.7 L 434.95 84.91 L 417.33 84.91 L 417.33 76.8 Q 413.81 81.78 409.4 84.06 Q 405.01 86.33 398.72 86.33 Q 390.22 86.33 384.92 81.38 Q 379.62 76.41 379.62 68.5 Q 379.62 58.88 386.23 54.39 Q 392.86 49.89 407.01 49.89 L 417.33 49.89 L 417.33 48.53 Q 417.33 44.38 414.04 42.45 Q 410.78 40.52 403.84 40.52 Q 398.23 40.52 393.39 41.64 Q 388.56 42.77 384.4 45.02 L 384.4 31.69 Q 390.03 30.31 395.69 29.61 Q 401.36 28.91 407.01 28.91 Q 421.81 28.91 428.37 34.73 Q 434.95 40.56 434.95 53.7 Z"/>
  </g>
</svg>