<svg id="vector" xmlns="http://www.w3.org/2000/svg" width="24" height="24.24145" viewBox="0 0 497 502"><path fill="#000000FF" d="M228.43,74.59Q223.51,66.93 222.5,57Q221.65,48.66 222.48,42.25Q224.28,28.19 233.1,18.43Q240.36,10.4 249.76,7.96Q262.18,4.75 273.81,12.69Q284.71,20.12 288.26,34.31Q293.68,55.99 281.69,74.19Q275.93,82.91 265.83,86.85Q252.76,91.95 241.69,86.59Q233.62,82.68 228.43,74.59Z" id="path_0"/><path fill="#000000FF" d="M146.23,379.09Q132.82,390.12 117.87,398.93Q116.58,399.69 117.43,398.45Q131.25,378.27 149.44,361.94Q160.28,352.2 174.67,344.46Q175.27,344.14 175.55,343.72Q176.33,342.57 174.64,342.73Q174.14,342.78 173.51,343.02Q160.35,348 147.94,358.44Q125.52,377.29 112.25,401.05A0.33,0.32 -49.3,0 1,111.7 401.1Q106.08,393.68 98.65,388.05A0.52,0.52 35.6,0 1,98.53 387.34Q129.47,341.62 162.98,296.12A0.96,0.95 -55.3,0 1,164.28 295.88Q177.47,304.36 184.06,317.3Q184.52,318.22 185.11,318.57Q186.37,319.34 186.67,317.76Q186.79,317.13 186.59,316.26Q184.34,306.23 176.7,299.3Q172.15,295.16 167.54,292.02A0.98,0.98 37.6,0 1,167.35 290.57Q177.71,278.35 189.41,267.9Q223.18,237.75 264.67,218.65A0.59,0.58 66.7,0 0,264.96 217.9L237.78,150.8A0.39,0.39 -31.2,0 0,237.17 150.65Q216,168.52 195.06,185.81Q191.22,188.99 188.68,190.5A0.85,0.84 45.3,0 1,187.82 190.49Q174.25,182.22 167.65,168.07A1.03,1 -37.7,0 1,167.8 166.99Q189.64,141.55 211.03,117.78Q219.74,108.1 232.01,103.67Q255.37,95.23 278.69,86.69Q287.82,83.34 296.48,82.69Q304.8,82.06 314.39,84.34Q330.92,88.28 344.11,99.05Q347.92,102.16 353.65,108.68Q360.65,116.66 362.81,118.69Q380.34,135.16 396.91,152.53A1.39,1.38 36.1,0 1,397.16 154.07Q390.16,168.98 375.9,176.08A1.49,1.48 50.7,0 1,374.32 175.92L348.64,155.62Q346.72,154.11 347.25,156.49Q354.46,189.04 361.97,221.51Q367.1,243.65 362.5,265.5Q358.94,282.42 351.59,299.15Q344.03,316.37 338.88,334.94A0.94,0.93 11,0 0,339.68 336.12Q359.74,338.16 378.49,339.87Q414.64,343.17 450.49,343.68A0.65,0.64 -3.4,0 0,451.14 342.95Q450.15,335.98 452.09,330.24Q455.3,320.75 466.25,321.5Q470.73,321.81 473.92,323.66Q476.65,325.25 478.87,329.42Q481.09,333.58 482.25,337.5Q491.37,368.21 489.62,400.26Q489.32,405.87 487.88,411.28Q486.44,416.72 481.5,417.5Q478.48,417.98 475.89,415.12Q472.13,410.98 469.78,405.88Q464.77,394.99 459.66,384.14Q453.52,371.13 444.5,359.95A0.9,0.89 -22.5,0 0,443.69 359.62Q385.48,365.93 327.43,373.54Q312.06,375.55 309.05,375.64Q299.38,375.9 290.5,373.25Q288.87,372.76 287.31,371.29Q286.17,370.21 285.09,368.37Q280.6,360.73 280.75,352Q280.83,347.14 281.63,341.64Q282.01,338.98 283.65,331.43Q289.56,304.09 289.93,276.06A0.33,0.32 -11.2,0 0,289.47 275.76Q266.02,285.93 242.65,296.28Q222.93,305.01 209.56,314.06Q199.8,320.67 192.81,327.56Q191.34,329.01 189.53,331.83Q177.44,350.65 161.27,365.91Q154.52,372.27 146.23,379.09ZM296.91,98.17Q295.23,101.79 294.39,105.64Q293.65,109 293.67,113.41Q293.79,132.42 303.57,148.88Q309.58,158.98 321.75,165.77A1.35,1.35 -58,0 0,323.52 165.36Q323.87,164.85 323.02,164.21Q308.71,153.4 302.11,137.42Q297.99,127.44 296.98,118.31Q295.87,108.25 298.86,98.22A0.86,0.73 -63.7,0 0,298.65 97.38Q297.66,96.54 296.91,98.17ZM241.74,274.27Q230.72,263.02 229.5,247.25Q229.34,245.19 229.92,241.25A1.35,0.82 -69,0 0,229.75 240.32Q229.29,239.75 228.81,240.56Q226.05,245.25 226.64,251.51Q228.68,273.14 247.77,282.78Q249.27,283.53 250.2,283.48Q252.29,283.36 250.63,282.1Q245.83,278.45 241.74,274.27ZM289.58,319.79Q314.36,328.52 336.24,314.48Q336.79,314.13 337.08,313.83Q338.15,312.72 336.63,312.58Q336.13,312.54 335.52,312.8Q314.07,321.98 290.95,318.12Q290.09,317.98 289.54,317.99Q287.44,318.02 288.43,319.1Q288.82,319.52 289.58,319.79Z" id="path_1"/><path fill="#000000FF" d="M406.77,211.84Q392.22,197.35 379.23,181.64A1,0.99 56.3,0 1,379.53 180.12Q386.31,176.54 391.28,171.05Q396.5,165.29 399.98,160.06Q401.48,157.8 403.17,159.93Q411.91,170.95 418.39,180.84Q442.94,218.3 463.37,258.16Q467.33,265.89 471.06,275.44Q471.9,277.57 470.88,279.05Q470.01,280.32 468.07,280.51Q465.72,280.74 463.81,279.44Q456.65,274.57 453.65,265.93Q453.46,265.39 453.19,265.16Q452.48,264.54 452.19,265.99Q451.86,267.73 451.63,269.49Q451.08,273.84 447.84,273.19Q445.91,272.81 444.59,270.64Q442.67,267.5 441.88,263.82Q439.96,254.83 441.32,246.81A2.96,2.96 26.1,0 0,440.4 244.13Q430.14,234.74 421.05,225.85Q410.63,215.68 406.77,211.84Z" id="path_2"/><path fill="#000000FF" d="M183.09,193.63A0.77,0.77 -50.1,0 1,183.19 194.8Q149.28,229.1 112.49,258.75Q108.12,262.27 103.15,264.86Q98.13,267.47 93.31,266.19Q90.76,265.51 90.31,262.44Q89.93,259.79 92.03,256.34Q94.99,251.47 99.81,247.81Q104.84,244 109.37,241.33Q115.48,237.72 119.39,231.87Q121.11,229.29 121.18,229.18Q141.53,200.46 163.24,172.9A0.87,0.87 -40.2,0 1,164.69 173.02Q171.63,185.63 183.09,193.63Z" id="path_3"/><path fill="#000000FF" d="M34.25,486.98A56.49,56.26 119.2,0 1,12.7 410.22A56.49,56.26 119.2,0 1,89.37 388.36A56.49,56.26 119.2,0 1,110.92 465.12A56.49,56.26 119.2,0 1,34.25 486.98ZM83.27,392.66Q74.41,400.92 63.59,401.45Q58.53,401.69 53.07,400Q47.83,398.39 43.31,395.45Q42.13,394.69 42.21,396.09Q43.61,421.05 21.11,430.16Q19.15,430.95 21.12,431.73Q45.75,441.52 43.75,469.02Q43.59,471.22 45.02,469.54Q49.2,464.67 55,461.92Q60.51,459.32 66.97,459.27Q78.21,459.17 87.76,466.01Q90.01,467.62 89.18,464.98Q86.73,457.19 88.92,449.36Q90.81,442.6 95.72,437.11Q100.45,431.81 107.25,428.54Q108.81,427.78 107.19,427.17Q83.67,418.33 83.75,392.87Q83.75,392.21 83.27,392.66Z" id="path_4"/></svg>