<?xml version="1.0" standalone="no"?>
<!DOCTYPE svg PUBLIC "-//W3C//DTD SVG 20010904//EN"
 "http://www.w3.org/TR/2001/REC-SVG-20010904/DTD/svg10.dtd">
<svg version="1.0" xmlns="http://www.w3.org/2000/svg"
 width="778.800000pt" height="800.500000pt" viewBox="237.2 202 778.8 800.5"
 preserveAspectRatio="xMidYMid meet">
<metadata>
Created by potrace 1.16, written by Peter Selinger 2001-2019
</metadata>
<g transform="translate(0.000000,1254.000000) scale(0.100000,-0.100000)"
fill="#000000" stroke="none">
<path d="M3610 10213 c-77 -13 -203 -49 -273 -79 -281 -121 -521 -384 -610
-669 -55 -177 -52 -15 -52 -2955 0 -2601 1 -2729 18 -2808 26 -117 60 -212
108 -301 157 -292 441 -500 775 -568 84 -17 222 -18 2699 -18 2510 0 2613 1
2695 19 349 76 629 294 788 612 38 75 77 213 92 319 8 57 10 876 8 2810 l-3
2730 -27 100 c-113 412 -454 728 -867 800 -72 13 -441 15 -2705 14 -1441 -1
-2632 -4 -2646 -6z m2264 -885 c5 -116 4 -1221 -3 -2196 l-1 -192 -1222 2
-1223 3 -1 1080 c-1 594 2 1109 7 1144 5 35 21 85 36 113 36 66 120 142 186
167 51 20 74 20 1133 20 l1082 1 6 -142z m3032 110 c69 -36 106 -69 142 -126
64 -99 62 -56 62 -1259 l0 -1093 -1242 0 -1243 0 0 1255 0 1255 1115 -2 1115
-3 51 -27z m-4006 -3207 l975 -1 -1 -198 c0 -108 -1 -311 -2 -449 l-2 -253
-683 0 c-585 0 -691 -2 -742 -16 -351 -91 -422 -566 -114 -751 106 -63 102
-63 859 -63 l685 0 -3 -470 -2 -470 -863 1 c-474 0 -968 4 -1097 8 -230 7
-236 7 -288 34 -102 53 -170 146 -191 261 -11 61 -16 2357 -5 2369 3 3 116 4
252 2 136 -1 686 -3 1222 -4z m4207 -137 c2 -76 0 -618 -5 -1204 l-7 -1065
-26 -55 c-31 -66 -95 -132 -164 -168 l-50 -27 -1118 -3 -1117 -2 2 462 3 463
725 5 c664 5 729 7 770 23 111 44 207 138 250 247 31 75 32 202 3 282 -42 114
-129 204 -245 251 -53 22 -59 22 -775 25 l-723 3 0 427 c0 235 -3 437 -6 449
l-6 23 1203 2 c662 2 1222 3 1244 2 l40 -1 2 -139z"/>
<path d="M4546 8744 c-310 -75 -478 -436 -333 -720 62 -122 164 -211 294 -255
94 -33 231 -33 324 -1 170 58 288 189 334 367 20 80 19 146 -5 241 -26 99 -68
170 -147 244 -128 120 -297 165 -467 124z"/>
<path d="M7720 8963 c-98 -16 -235 -78 -328 -148 -315 -237 -378 -715 -137
-1034 93 -123 248 -225 405 -267 89 -24 281 -24 370 0 210 57 380 197 475 391
56 114 77 203 77 332 0 335 -230 629 -558 713 -73 19 -230 25 -304 13z"/>
</g>
</svg>
