<?xml version="1.0" encoding="UTF-8" standalone="no"?>
<!DOCTYPE svg PUBLIC "-//W3C//DTD SVG 1.1//EN" "http://www.w3.org/Graphics/SVG/1.1/DTD/svg11.dtd">
<svg xmlns="http://www.w3.org/2000/svg" version="1.1" viewBox="0 0 500 499">
<path fill="#000000" d="
  M 19.50 168.25
  Q 35.62 124.91 65.77 89.90
  Q 72.32 82.29 79.47 75.32
  Q 133.33 22.80 208.31 10.31
  Q 238.44 5.30 270.23 8.21
  Q 358.98 16.33 420.56 77.44
  Q 437.02 93.77 451.53 116.20
  Q 458.03 126.27 462.08 133.19
  Q 474.57 154.56 482.50 180.50
  Q 489.73 204.15 492.00 232.25
  Q 493.34 248.82 492.60 260.51
  Q 486.87 351.09 426.11 417.61
  Q 398.64 447.69 362.51 466.53
  Q 317.36 490.07 267.50 493.50
  Q 242.06 495.25 215.41 492.09
  Q 205.04 490.86 195.70 488.78
  Q 157.16 480.21 122.94 459.31
  Q 87.72 437.80 61.87 406.37
  Q 16.31 350.99 7.00 281.75
  Q 0.69 234.78 13.42 187.29
  Q 16.01 177.63 19.50 168.25
  Z
  M 448.45 114.10
  Q 436.25 98.02 422.42 87.35
  Q 415.98 82.39 409.44 77.55
  Q 408.97 77.20 408.85 77.37
  A 0.50 0.28 39.9 0 0 409.05 77.89
  Q 416.12 84.01 420.69 94.56
  Q 426.19 107.27 424.57 119.26
  Q 422.29 136.11 410.26 148.01
  Q 405.09 153.13 398.75 158.00
  Q 397.16 159.21 398.72 160.46
  Q 427.35 183.36 440.63 216.74
  Q 443.19 223.17 445.25 232.00
  Q 454.03 269.61 443.88 306.57
  Q 443.28 308.75 444.80 307.08
  Q 449.92 301.43 454.22 295.19
  Q 458.34 289.22 461.71 282.05
  Q 470.62 263.12 473.65 242.44
  Q 474.93 233.65 474.95 222.51
  Q 474.97 207.61 473.25 196.25
  Q 466.91 154.46 449.62 116.07
  Q 449.15 115.02 448.45 114.10
  Z
  M 243.06 144.44
  Q 203.40 107.98 152.00 91.50
  Q 138.43 87.15 131.45 85.17
  Q 131.33 85.14 126.57 83.70
  Q 121.96 82.31 116.98 81.72
  A 1.07 1.06 23.1 0 0 116.03 82.10
  Q 69.79 137.76 55.65 208.98
  Q 49.29 241.05 48.76 273.36
  A 2.95 2.95 -66.0 0 0 49.55 275.42
  Q 53.98 280.16 58.93 284.32
  Q 88.34 309.07 123.30 324.61
  Q 132.73 328.80 141.90 331.92
  Q 172.66 342.37 204.50 343.75
  Q 223.08 344.55 228.44 344.90
  A 1.00 0.99 -67.2 0 0 229.27 344.56
  Q 233.51 339.56 237.56 331.81
  Q 274.72 260.81 274.75 181.51
  A 1.67 1.59 -63.3 0 0 274.47 180.59
  Q 260.80 160.75 243.06 144.44
  Z
  M 239.43 481.81
  Q 242.06 482.86 244.86 482.81
  Q 246.99 482.78 247.14 482.78
  Q 268.13 483.32 291.00 479.75
  Q 314.03 476.15 334.56 467.73
  Q 345.27 463.34 352.28 458.58
  Q 366.03 449.25 376.31 434.31
  Q 392.33 411.04 398.75 383.49
  Q 399.03 382.29 398.04 383.01
  Q 387.82 390.47 377.13 397.85
  Q 328.39 431.54 268.76 432.25
  A 0.52 0.52 -88.8 0 0 268.25 432.74
  Q 266.77 456.10 251.39 472.89
  Q 248.76 475.76 245.98 477.37
  Q 242.91 479.16 239.48 480.26
  Q 237.30 480.96 239.43 481.81
  Z"
/>
</svg>
