<?xml version="1.0" standalone="no"?>
<svg xmlns="http://www.w3.org/2000/svg" version="1.1" width="490" height="490">
	<!-- Created with https://api.qrserver.com (QR Code API, see goQR.me/api for information) -->
	<title>QR Code</title>
	<desc>https://play.google.com/store/apps/details?id=com.felipearpa.fortuna</desc>
	<rect style="fill:rgb(255, 255, 255);fill-opacity:1" x="0" y="0" width="490" height="490" />
	<g id="elements">
		<path style="fill:rgb(15, 48, 20)" d="M 14,14 l 14,0 0,14 -14,0 z M 28,14 l 14,0 0,14 -14,0 z M 42,14 l 14,0 0,14 -14,0 z M 56,14 l 14,0 0,14 -14,0 z M 70,14 l 14,0 0,14 -14,0 z M 84,14 l 14,0 0,14 -14,0 z M 98,14 l 14,0 0,14 -14,0 z M 140,14 l 14,0 0,14 -14,0 z M 238,14 l 14,0 0,14 -14,0 z M 252,14 l 14,0 0,14 -14,0 z M 266,14 l 14,0 0,14 -14,0 z M 280,14 l 14,0 0,14 -14,0 z M 294,14 l 14,0 0,14 -14,0 z M 308,14 l 14,0 0,14 -14,0 z M 322,14 l 14,0 0,14 -14,0 z M 336,14 l 14,0 0,14 -14,0 z M 378,14 l 14,0 0,14 -14,0 z M 392,14 l 14,0 0,14 -14,0 z M 406,14 l 14,0 0,14 -14,0 z M 420,14 l 14,0 0,14 -14,0 z M 434,14 l 14,0 0,14 -14,0 z M 448,14 l 14,0 0,14 -14,0 z M 462,14 l 14,0 0,14 -14,0 z M 14,28 l 14,0 0,14 -14,0 z M 98,28 l 14,0 0,14 -14,0 z M 126,28 l 14,0 0,14 -14,0 z M 140,28 l 14,0 0,14 -14,0 z M 168,28 l 14,0 0,14 -14,0 z M 182,28 l 14,0 0,14 -14,0 z M 224,28 l 14,0 0,14 -14,0 z M 266,28 l 14,0 0,14 -14,0 z M 294,28 l 14,0 0,14 -14,0 z M 378,28 l 14,0 0,14 -14,0 z M 462,28 l 14,0 0,14 -14,0 z M 14,42 l 14,0 0,14 -14,0 z M 42,42 l 14,0 0,14 -14,0 z M 56,42 l 14,0 0,14 -14,0 z M 70,42 l 14,0 0,14 -14,0 z M 98,42 l 14,0 0,14 -14,0 z M 140,42 l 14,0 0,14 -14,0 z M 154,42 l 14,0 0,14 -14,0 z M 168,42 l 14,0 0,14 -14,0 z M 210,42 l 14,0 0,14 -14,0 z M 224,42 l 14,0 0,14 -14,0 z M 280,42 l 14,0 0,14 -14,0 z M 294,42 l 14,0 0,14 -14,0 z M 308,42 l 14,0 0,14 -14,0 z M 336,42 l 14,0 0,14 -14,0 z M 378,42 l 14,0 0,14 -14,0 z M 406,42 l 14,0 0,14 -14,0 z M 420,42 l 14,0 0,14 -14,0 z M 434,42 l 14,0 0,14 -14,0 z M 462,42 l 14,0 0,14 -14,0 z M 14,56 l 14,0 0,14 -14,0 z M 42,56 l 14,0 0,14 -14,0 z M 56,56 l 14,0 0,14 -14,0 z M 70,56 l 14,0 0,14 -14,0 z M 98,56 l 14,0 0,14 -14,0 z M 126,56 l 14,0 0,14 -14,0 z M 140,56 l 14,0 0,14 -14,0 z M 168,56 l 14,0 0,14 -14,0 z M 196,56 l 14,0 0,14 -14,0 z M 224,56 l 14,0 0,14 -14,0 z M 238,56 l 14,0 0,14 -14,0 z M 252,56 l 14,0 0,14 -14,0 z M 280,56 l 14,0 0,14 -14,0 z M 294,56 l 14,0 0,14 -14,0 z M 322,56 l 14,0 0,14 -14,0 z M 336,56 l 14,0 0,14 -14,0 z M 350,56 l 14,0 0,14 -14,0 z M 378,56 l 14,0 0,14 -14,0 z M 406,56 l 14,0 0,14 -14,0 z M 420,56 l 14,0 0,14 -14,0 z M 434,56 l 14,0 0,14 -14,0 z M 462,56 l 14,0 0,14 -14,0 z M 14,70 l 14,0 0,14 -14,0 z M 42,70 l 14,0 0,14 -14,0 z M 56,70 l 14,0 0,14 -14,0 z M 70,70 l 14,0 0,14 -14,0 z M 98,70 l 14,0 0,14 -14,0 z M 154,70 l 14,0 0,14 -14,0 z M 182,70 l 14,0 0,14 -14,0 z M 196,70 l 14,0 0,14 -14,0 z M 238,70 l 14,0 0,14 -14,0 z M 266,70 l 14,0 0,14 -14,0 z M 280,70 l 14,0 0,14 -14,0 z M 308,70 l 14,0 0,14 -14,0 z M 336,70 l 14,0 0,14 -14,0 z M 378,70 l 14,0 0,14 -14,0 z M 406,70 l 14,0 0,14 -14,0 z M 420,70 l 14,0 0,14 -14,0 z M 434,70 l 14,0 0,14 -14,0 z M 462,70 l 14,0 0,14 -14,0 z M 14,84 l 14,0 0,14 -14,0 z M 98,84 l 14,0 0,14 -14,0 z M 126,84 l 14,0 0,14 -14,0 z M 154,84 l 14,0 0,14 -14,0 z M 196,84 l 14,0 0,14 -14,0 z M 210,84 l 14,0 0,14 -14,0 z M 224,84 l 14,0 0,14 -14,0 z M 294,84 l 14,0 0,14 -14,0 z M 308,84 l 14,0 0,14 -14,0 z M 322,84 l 14,0 0,14 -14,0 z M 350,84 l 14,0 0,14 -14,0 z M 378,84 l 14,0 0,14 -14,0 z M 462,84 l 14,0 0,14 -14,0 z M 14,98 l 14,0 0,14 -14,0 z M 28,98 l 14,0 0,14 -14,0 z M 42,98 l 14,0 0,14 -14,0 z M 56,98 l 14,0 0,14 -14,0 z M 70,98 l 14,0 0,14 -14,0 z M 84,98 l 14,0 0,14 -14,0 z M 98,98 l 14,0 0,14 -14,0 z M 126,98 l 14,0 0,14 -14,0 z M 154,98 l 14,0 0,14 -14,0 z M 182,98 l 14,0 0,14 -14,0 z M 210,98 l 14,0 0,14 -14,0 z M 238,98 l 14,0 0,14 -14,0 z M 266,98 l 14,0 0,14 -14,0 z M 294,98 l 14,0 0,14 -14,0 z M 322,98 l 14,0 0,14 -14,0 z M 350,98 l 14,0 0,14 -14,0 z M 378,98 l 14,0 0,14 -14,0 z M 392,98 l 14,0 0,14 -14,0 z M 406,98 l 14,0 0,14 -14,0 z M 420,98 l 14,0 0,14 -14,0 z M 434,98 l 14,0 0,14 -14,0 z M 448,98 l 14,0 0,14 -14,0 z M 462,98 l 14,0 0,14 -14,0 z M 182,112 l 14,0 0,14 -14,0 z M 266,112 l 14,0 0,14 -14,0 z M 280,112 l 14,0 0,14 -14,0 z M 308,112 l 14,0 0,14 -14,0 z M 322,112 l 14,0 0,14 -14,0 z M 14,126 l 14,0 0,14 -14,0 z M 28,126 l 14,0 0,14 -14,0 z M 42,126 l 14,0 0,14 -14,0 z M 56,126 l 14,0 0,14 -14,0 z M 70,126 l 14,0 0,14 -14,0 z M 98,126 l 14,0 0,14 -14,0 z M 112,126 l 14,0 0,14 -14,0 z M 126,126 l 14,0 0,14 -14,0 z M 140,126 l 14,0 0,14 -14,0 z M 154,126 l 14,0 0,14 -14,0 z M 182,126 l 14,0 0,14 -14,0 z M 196,126 l 14,0 0,14 -14,0 z M 210,126 l 14,0 0,14 -14,0 z M 224,126 l 14,0 0,14 -14,0 z M 238,126 l 14,0 0,14 -14,0 z M 252,126 l 14,0 0,14 -14,0 z M 266,126 l 14,0 0,14 -14,0 z M 294,126 l 14,0 0,14 -14,0 z M 364,126 l 14,0 0,14 -14,0 z M 392,126 l 14,0 0,14 -14,0 z M 420,126 l 14,0 0,14 -14,0 z M 448,126 l 14,0 0,14 -14,0 z M 42,140 l 14,0 0,14 -14,0 z M 70,140 l 14,0 0,14 -14,0 z M 140,140 l 14,0 0,14 -14,0 z M 238,140 l 14,0 0,14 -14,0 z M 252,140 l 14,0 0,14 -14,0 z M 280,140 l 14,0 0,14 -14,0 z M 294,140 l 14,0 0,14 -14,0 z M 336,140 l 14,0 0,14 -14,0 z M 378,140 l 14,0 0,14 -14,0 z M 434,140 l 14,0 0,14 -14,0 z M 448,140 l 14,0 0,14 -14,0 z M 462,140 l 14,0 0,14 -14,0 z M 14,154 l 14,0 0,14 -14,0 z M 56,154 l 14,0 0,14 -14,0 z M 70,154 l 14,0 0,14 -14,0 z M 84,154 l 14,0 0,14 -14,0 z M 98,154 l 14,0 0,14 -14,0 z M 112,154 l 14,0 0,14 -14,0 z M 140,154 l 14,0 0,14 -14,0 z M 168,154 l 14,0 0,14 -14,0 z M 182,154 l 14,0 0,14 -14,0 z M 196,154 l 14,0 0,14 -14,0 z M 210,154 l 14,0 0,14 -14,0 z M 224,154 l 14,0 0,14 -14,0 z M 238,154 l 14,0 0,14 -14,0 z M 322,154 l 14,0 0,14 -14,0 z M 364,154 l 14,0 0,14 -14,0 z M 378,154 l 14,0 0,14 -14,0 z M 406,154 l 14,0 0,14 -14,0 z M 420,154 l 14,0 0,14 -14,0 z M 448,154 l 14,0 0,14 -14,0 z M 28,168 l 14,0 0,14 -14,0 z M 42,168 l 14,0 0,14 -14,0 z M 56,168 l 14,0 0,14 -14,0 z M 70,168 l 14,0 0,14 -14,0 z M 140,168 l 14,0 0,14 -14,0 z M 154,168 l 14,0 0,14 -14,0 z M 168,168 l 14,0 0,14 -14,0 z M 224,168 l 14,0 0,14 -14,0 z M 294,168 l 14,0 0,14 -14,0 z M 308,168 l 14,0 0,14 -14,0 z M 322,168 l 14,0 0,14 -14,0 z M 336,168 l 14,0 0,14 -14,0 z M 350,168 l 14,0 0,14 -14,0 z M 364,168 l 14,0 0,14 -14,0 z M 378,168 l 14,0 0,14 -14,0 z M 406,168 l 14,0 0,14 -14,0 z M 434,168 l 14,0 0,14 -14,0 z M 28,182 l 14,0 0,14 -14,0 z M 56,182 l 14,0 0,14 -14,0 z M 84,182 l 14,0 0,14 -14,0 z M 98,182 l 14,0 0,14 -14,0 z M 126,182 l 14,0 0,14 -14,0 z M 140,182 l 14,0 0,14 -14,0 z M 168,182 l 14,0 0,14 -14,0 z M 196,182 l 14,0 0,14 -14,0 z M 210,182 l 14,0 0,14 -14,0 z M 224,182 l 14,0 0,14 -14,0 z M 252,182 l 14,0 0,14 -14,0 z M 280,182 l 14,0 0,14 -14,0 z M 322,182 l 14,0 0,14 -14,0 z M 364,182 l 14,0 0,14 -14,0 z M 392,182 l 14,0 0,14 -14,0 z M 406,182 l 14,0 0,14 -14,0 z M 420,182 l 14,0 0,14 -14,0 z M 14,196 l 14,0 0,14 -14,0 z M 42,196 l 14,0 0,14 -14,0 z M 84,196 l 14,0 0,14 -14,0 z M 112,196 l 14,0 0,14 -14,0 z M 126,196 l 14,0 0,14 -14,0 z M 140,196 l 14,0 0,14 -14,0 z M 154,196 l 14,0 0,14 -14,0 z M 182,196 l 14,0 0,14 -14,0 z M 196,196 l 14,0 0,14 -14,0 z M 238,196 l 14,0 0,14 -14,0 z M 266,196 l 14,0 0,14 -14,0 z M 280,196 l 14,0 0,14 -14,0 z M 294,196 l 14,0 0,14 -14,0 z M 308,196 l 14,0 0,14 -14,0 z M 336,196 l 14,0 0,14 -14,0 z M 378,196 l 14,0 0,14 -14,0 z M 448,196 l 14,0 0,14 -14,0 z M 462,196 l 14,0 0,14 -14,0 z M 14,210 l 14,0 0,14 -14,0 z M 28,210 l 14,0 0,14 -14,0 z M 42,210 l 14,0 0,14 -14,0 z M 98,210 l 14,0 0,14 -14,0 z M 112,210 l 14,0 0,14 -14,0 z M 140,210 l 14,0 0,14 -14,0 z M 154,210 l 14,0 0,14 -14,0 z M 196,210 l 14,0 0,14 -14,0 z M 210,210 l 14,0 0,14 -14,0 z M 224,210 l 14,0 0,14 -14,0 z M 238,210 l 14,0 0,14 -14,0 z M 252,210 l 14,0 0,14 -14,0 z M 266,210 l 14,0 0,14 -14,0 z M 294,210 l 14,0 0,14 -14,0 z M 308,210 l 14,0 0,14 -14,0 z M 364,210 l 14,0 0,14 -14,0 z M 406,210 l 14,0 0,14 -14,0 z M 448,210 l 14,0 0,14 -14,0 z M 14,224 l 14,0 0,14 -14,0 z M 28,224 l 14,0 0,14 -14,0 z M 42,224 l 14,0 0,14 -14,0 z M 56,224 l 14,0 0,14 -14,0 z M 126,224 l 14,0 0,14 -14,0 z M 140,224 l 14,0 0,14 -14,0 z M 154,224 l 14,0 0,14 -14,0 z M 182,224 l 14,0 0,14 -14,0 z M 210,224 l 14,0 0,14 -14,0 z M 224,224 l 14,0 0,14 -14,0 z M 238,224 l 14,0 0,14 -14,0 z M 308,224 l 14,0 0,14 -14,0 z M 322,224 l 14,0 0,14 -14,0 z M 336,224 l 14,0 0,14 -14,0 z M 364,224 l 14,0 0,14 -14,0 z M 378,224 l 14,0 0,14 -14,0 z M 434,224 l 14,0 0,14 -14,0 z M 28,238 l 14,0 0,14 -14,0 z M 42,238 l 14,0 0,14 -14,0 z M 84,238 l 14,0 0,14 -14,0 z M 98,238 l 14,0 0,14 -14,0 z M 112,238 l 14,0 0,14 -14,0 z M 126,238 l 14,0 0,14 -14,0 z M 140,238 l 14,0 0,14 -14,0 z M 182,238 l 14,0 0,14 -14,0 z M 196,238 l 14,0 0,14 -14,0 z M 210,238 l 14,0 0,14 -14,0 z M 224,238 l 14,0 0,14 -14,0 z M 252,238 l 14,0 0,14 -14,0 z M 280,238 l 14,0 0,14 -14,0 z M 322,238 l 14,0 0,14 -14,0 z M 336,238 l 14,0 0,14 -14,0 z M 350,238 l 14,0 0,14 -14,0 z M 364,238 l 14,0 0,14 -14,0 z M 392,238 l 14,0 0,14 -14,0 z M 406,238 l 14,0 0,14 -14,0 z M 448,238 l 14,0 0,14 -14,0 z M 28,252 l 14,0 0,14 -14,0 z M 84,252 l 14,0 0,14 -14,0 z M 112,252 l 14,0 0,14 -14,0 z M 126,252 l 14,0 0,14 -14,0 z M 210,252 l 14,0 0,14 -14,0 z M 238,252 l 14,0 0,14 -14,0 z M 252,252 l 14,0 0,14 -14,0 z M 266,252 l 14,0 0,14 -14,0 z M 280,252 l 14,0 0,14 -14,0 z M 294,252 l 14,0 0,14 -14,0 z M 308,252 l 14,0 0,14 -14,0 z M 322,252 l 14,0 0,14 -14,0 z M 336,252 l 14,0 0,14 -14,0 z M 350,252 l 14,0 0,14 -14,0 z M 378,252 l 14,0 0,14 -14,0 z M 420,252 l 14,0 0,14 -14,0 z M 448,252 l 14,0 0,14 -14,0 z M 462,252 l 14,0 0,14 -14,0 z M 14,266 l 14,0 0,14 -14,0 z M 28,266 l 14,0 0,14 -14,0 z M 98,266 l 14,0 0,14 -14,0 z M 126,266 l 14,0 0,14 -14,0 z M 154,266 l 14,0 0,14 -14,0 z M 168,266 l 14,0 0,14 -14,0 z M 182,266 l 14,0 0,14 -14,0 z M 196,266 l 14,0 0,14 -14,0 z M 224,266 l 14,0 0,14 -14,0 z M 252,266 l 14,0 0,14 -14,0 z M 294,266 l 14,0 0,14 -14,0 z M 308,266 l 14,0 0,14 -14,0 z M 364,266 l 14,0 0,14 -14,0 z M 378,266 l 14,0 0,14 -14,0 z M 392,266 l 14,0 0,14 -14,0 z M 406,266 l 14,0 0,14 -14,0 z M 420,266 l 14,0 0,14 -14,0 z M 448,266 l 14,0 0,14 -14,0 z M 56,280 l 14,0 0,14 -14,0 z M 70,280 l 14,0 0,14 -14,0 z M 112,280 l 14,0 0,14 -14,0 z M 126,280 l 14,0 0,14 -14,0 z M 140,280 l 14,0 0,14 -14,0 z M 168,280 l 14,0 0,14 -14,0 z M 224,280 l 14,0 0,14 -14,0 z M 308,280 l 14,0 0,14 -14,0 z M 406,280 l 14,0 0,14 -14,0 z M 434,280 l 14,0 0,14 -14,0 z M 28,294 l 14,0 0,14 -14,0 z M 70,294 l 14,0 0,14 -14,0 z M 98,294 l 14,0 0,14 -14,0 z M 112,294 l 14,0 0,14 -14,0 z M 168,294 l 14,0 0,14 -14,0 z M 196,294 l 14,0 0,14 -14,0 z M 210,294 l 14,0 0,14 -14,0 z M 224,294 l 14,0 0,14 -14,0 z M 238,294 l 14,0 0,14 -14,0 z M 252,294 l 14,0 0,14 -14,0 z M 322,294 l 14,0 0,14 -14,0 z M 336,294 l 14,0 0,14 -14,0 z M 350,294 l 14,0 0,14 -14,0 z M 364,294 l 14,0 0,14 -14,0 z M 392,294 l 14,0 0,14 -14,0 z M 406,294 l 14,0 0,14 -14,0 z M 448,294 l 14,0 0,14 -14,0 z M 14,308 l 14,0 0,14 -14,0 z M 28,308 l 14,0 0,14 -14,0 z M 42,308 l 14,0 0,14 -14,0 z M 84,308 l 14,0 0,14 -14,0 z M 112,308 l 14,0 0,14 -14,0 z M 154,308 l 14,0 0,14 -14,0 z M 182,308 l 14,0 0,14 -14,0 z M 210,308 l 14,0 0,14 -14,0 z M 238,308 l 14,0 0,14 -14,0 z M 252,308 l 14,0 0,14 -14,0 z M 266,308 l 14,0 0,14 -14,0 z M 280,308 l 14,0 0,14 -14,0 z M 294,308 l 14,0 0,14 -14,0 z M 308,308 l 14,0 0,14 -14,0 z M 322,308 l 14,0 0,14 -14,0 z M 336,308 l 14,0 0,14 -14,0 z M 378,308 l 14,0 0,14 -14,0 z M 392,308 l 14,0 0,14 -14,0 z M 420,308 l 14,0 0,14 -14,0 z M 448,308 l 14,0 0,14 -14,0 z M 462,308 l 14,0 0,14 -14,0 z M 14,322 l 14,0 0,14 -14,0 z M 98,322 l 14,0 0,14 -14,0 z M 126,322 l 14,0 0,14 -14,0 z M 154,322 l 14,0 0,14 -14,0 z M 210,322 l 14,0 0,14 -14,0 z M 224,322 l 14,0 0,14 -14,0 z M 238,322 l 14,0 0,14 -14,0 z M 308,322 l 14,0 0,14 -14,0 z M 364,322 l 14,0 0,14 -14,0 z M 420,322 l 14,0 0,14 -14,0 z M 448,322 l 14,0 0,14 -14,0 z M 14,336 l 14,0 0,14 -14,0 z M 42,336 l 14,0 0,14 -14,0 z M 56,336 l 14,0 0,14 -14,0 z M 112,336 l 14,0 0,14 -14,0 z M 126,336 l 14,0 0,14 -14,0 z M 140,336 l 14,0 0,14 -14,0 z M 182,336 l 14,0 0,14 -14,0 z M 224,336 l 14,0 0,14 -14,0 z M 294,336 l 14,0 0,14 -14,0 z M 308,336 l 14,0 0,14 -14,0 z M 336,336 l 14,0 0,14 -14,0 z M 364,336 l 14,0 0,14 -14,0 z M 392,336 l 14,0 0,14 -14,0 z M 406,336 l 14,0 0,14 -14,0 z M 420,336 l 14,0 0,14 -14,0 z M 434,336 l 14,0 0,14 -14,0 z M 14,350 l 14,0 0,14 -14,0 z M 42,350 l 14,0 0,14 -14,0 z M 98,350 l 14,0 0,14 -14,0 z M 112,350 l 14,0 0,14 -14,0 z M 126,350 l 14,0 0,14 -14,0 z M 154,350 l 14,0 0,14 -14,0 z M 182,350 l 14,0 0,14 -14,0 z M 196,350 l 14,0 0,14 -14,0 z M 210,350 l 14,0 0,14 -14,0 z M 252,350 l 14,0 0,14 -14,0 z M 266,350 l 14,0 0,14 -14,0 z M 294,350 l 14,0 0,14 -14,0 z M 322,350 l 14,0 0,14 -14,0 z M 336,350 l 14,0 0,14 -14,0 z M 350,350 l 14,0 0,14 -14,0 z M 364,350 l 14,0 0,14 -14,0 z M 378,350 l 14,0 0,14 -14,0 z M 392,350 l 14,0 0,14 -14,0 z M 406,350 l 14,0 0,14 -14,0 z M 420,350 l 14,0 0,14 -14,0 z M 462,350 l 14,0 0,14 -14,0 z M 126,364 l 14,0 0,14 -14,0 z M 210,364 l 14,0 0,14 -14,0 z M 238,364 l 14,0 0,14 -14,0 z M 252,364 l 14,0 0,14 -14,0 z M 266,364 l 14,0 0,14 -14,0 z M 280,364 l 14,0 0,14 -14,0 z M 294,364 l 14,0 0,14 -14,0 z M 308,364 l 14,0 0,14 -14,0 z M 322,364 l 14,0 0,14 -14,0 z M 350,364 l 14,0 0,14 -14,0 z M 406,364 l 14,0 0,14 -14,0 z M 434,364 l 14,0 0,14 -14,0 z M 462,364 l 14,0 0,14 -14,0 z M 14,378 l 14,0 0,14 -14,0 z M 28,378 l 14,0 0,14 -14,0 z M 42,378 l 14,0 0,14 -14,0 z M 56,378 l 14,0 0,14 -14,0 z M 70,378 l 14,0 0,14 -14,0 z M 84,378 l 14,0 0,14 -14,0 z M 98,378 l 14,0 0,14 -14,0 z M 126,378 l 14,0 0,14 -14,0 z M 140,378 l 14,0 0,14 -14,0 z M 154,378 l 14,0 0,14 -14,0 z M 168,378 l 14,0 0,14 -14,0 z M 182,378 l 14,0 0,14 -14,0 z M 210,378 l 14,0 0,14 -14,0 z M 224,378 l 14,0 0,14 -14,0 z M 252,378 l 14,0 0,14 -14,0 z M 294,378 l 14,0 0,14 -14,0 z M 336,378 l 14,0 0,14 -14,0 z M 350,378 l 14,0 0,14 -14,0 z M 378,378 l 14,0 0,14 -14,0 z M 406,378 l 14,0 0,14 -14,0 z M 434,378 l 14,0 0,14 -14,0 z M 448,378 l 14,0 0,14 -14,0 z M 14,392 l 14,0 0,14 -14,0 z M 98,392 l 14,0 0,14 -14,0 z M 140,392 l 14,0 0,14 -14,0 z M 168,392 l 14,0 0,14 -14,0 z M 210,392 l 14,0 0,14 -14,0 z M 224,392 l 14,0 0,14 -14,0 z M 238,392 l 14,0 0,14 -14,0 z M 266,392 l 14,0 0,14 -14,0 z M 294,392 l 14,0 0,14 -14,0 z M 308,392 l 14,0 0,14 -14,0 z M 322,392 l 14,0 0,14 -14,0 z M 336,392 l 14,0 0,14 -14,0 z M 350,392 l 14,0 0,14 -14,0 z M 406,392 l 14,0 0,14 -14,0 z M 420,392 l 14,0 0,14 -14,0 z M 434,392 l 14,0 0,14 -14,0 z M 14,406 l 14,0 0,14 -14,0 z M 42,406 l 14,0 0,14 -14,0 z M 56,406 l 14,0 0,14 -14,0 z M 70,406 l 14,0 0,14 -14,0 z M 98,406 l 14,0 0,14 -14,0 z M 126,406 l 14,0 0,14 -14,0 z M 154,406 l 14,0 0,14 -14,0 z M 168,406 l 14,0 0,14 -14,0 z M 182,406 l 14,0 0,14 -14,0 z M 196,406 l 14,0 0,14 -14,0 z M 210,406 l 14,0 0,14 -14,0 z M 252,406 l 14,0 0,14 -14,0 z M 350,406 l 14,0 0,14 -14,0 z M 364,406 l 14,0 0,14 -14,0 z M 378,406 l 14,0 0,14 -14,0 z M 392,406 l 14,0 0,14 -14,0 z M 406,406 l 14,0 0,14 -14,0 z M 448,406 l 14,0 0,14 -14,0 z M 14,420 l 14,0 0,14 -14,0 z M 42,420 l 14,0 0,14 -14,0 z M 56,420 l 14,0 0,14 -14,0 z M 70,420 l 14,0 0,14 -14,0 z M 98,420 l 14,0 0,14 -14,0 z M 126,420 l 14,0 0,14 -14,0 z M 140,420 l 14,0 0,14 -14,0 z M 182,420 l 14,0 0,14 -14,0 z M 196,420 l 14,0 0,14 -14,0 z M 238,420 l 14,0 0,14 -14,0 z M 266,420 l 14,0 0,14 -14,0 z M 280,420 l 14,0 0,14 -14,0 z M 294,420 l 14,0 0,14 -14,0 z M 336,420 l 14,0 0,14 -14,0 z M 406,420 l 14,0 0,14 -14,0 z M 420,420 l 14,0 0,14 -14,0 z M 14,434 l 14,0 0,14 -14,0 z M 42,434 l 14,0 0,14 -14,0 z M 56,434 l 14,0 0,14 -14,0 z M 70,434 l 14,0 0,14 -14,0 z M 98,434 l 14,0 0,14 -14,0 z M 126,434 l 14,0 0,14 -14,0 z M 140,434 l 14,0 0,14 -14,0 z M 196,434 l 14,0 0,14 -14,0 z M 210,434 l 14,0 0,14 -14,0 z M 224,434 l 14,0 0,14 -14,0 z M 238,434 l 14,0 0,14 -14,0 z M 252,434 l 14,0 0,14 -14,0 z M 322,434 l 14,0 0,14 -14,0 z M 350,434 l 14,0 0,14 -14,0 z M 378,434 l 14,0 0,14 -14,0 z M 434,434 l 14,0 0,14 -14,0 z M 448,434 l 14,0 0,14 -14,0 z M 14,448 l 14,0 0,14 -14,0 z M 98,448 l 14,0 0,14 -14,0 z M 126,448 l 14,0 0,14 -14,0 z M 140,448 l 14,0 0,14 -14,0 z M 182,448 l 14,0 0,14 -14,0 z M 224,448 l 14,0 0,14 -14,0 z M 238,448 l 14,0 0,14 -14,0 z M 266,448 l 14,0 0,14 -14,0 z M 294,448 l 14,0 0,14 -14,0 z M 308,448 l 14,0 0,14 -14,0 z M 322,448 l 14,0 0,14 -14,0 z M 364,448 l 14,0 0,14 -14,0 z M 378,448 l 14,0 0,14 -14,0 z M 420,448 l 14,0 0,14 -14,0 z M 434,448 l 14,0 0,14 -14,0 z M 14,462 l 14,0 0,14 -14,0 z M 28,462 l 14,0 0,14 -14,0 z M 42,462 l 14,0 0,14 -14,0 z M 56,462 l 14,0 0,14 -14,0 z M 70,462 l 14,0 0,14 -14,0 z M 84,462 l 14,0 0,14 -14,0 z M 98,462 l 14,0 0,14 -14,0 z M 126,462 l 14,0 0,14 -14,0 z M 154,462 l 14,0 0,14 -14,0 z M 182,462 l 14,0 0,14 -14,0 z M 196,462 l 14,0 0,14 -14,0 z M 210,462 l 14,0 0,14 -14,0 z M 224,462 l 14,0 0,14 -14,0 z M 252,462 l 14,0 0,14 -14,0 z M 322,462 l 14,0 0,14 -14,0 z M 336,462 l 14,0 0,14 -14,0 z M 350,462 l 14,0 0,14 -14,0 z M 378,462 l 14,0 0,14 -14,0 z M 392,462 l 14,0 0,14 -14,0 z M 448,462 l 14,0 0,14 -14,0 z " />
	</g>
</svg>
