<?xml version="1.0" encoding="UTF-8" standalone="no"?>
<svg xmlns="http://www.w3.org/2000/svg" version="1.1" viewBox="0 0 500 200" width="200" height="80">
  <g fill="#000000" transform="translate(19 44) scale(0.118)">
    <path d="M425.5,210c-37,3.8 -69,31.7 -79.4,68.9l-2.6,9.6 0,217.5c0,204.4 0.1,217.9 1.8,224.4 7.2,28.3 25.1,50.3 50.8,62.6 4.6,2.2 12.2,5 16.9,6.2l8.5,2.3 206.5,-0c193.6,-0 206.9,-0.1 213.3,-1.8 35.2,-9 61.7,-36.5 68.8,-71.4 1.9,-8.9 1.9,-17 1.6,-225.5l-0.2,-216.3 -2.3,-8c-9,-31.3 -32.8,-55.9 -63.7,-65.5 -5.4,-1.7 -11.2,-2.4 -25,-3.1 -21.2,-1 -384.8,-0.9 -395,0.1zM583,372l0,96 -87,-0 -87,-0 0,-87c0,-95.4 -0.3,-90.1 6.1,-97.5 7,-7.9 1.8,-7.5 89.7,-7.5l78.2,-0 0,96zM836.1,279.5c2.4,1.7 5.7,5 7.4,7.4l3,4.3 0.3,88.4 0.2,88.4 -100,-0 -100,-0 0,-96 0,-96 92.4,0.2 92.4,0.3 4.3,3zM582.8,569.2l-0.3,38.3 -52.6,0.2c-50.7,0.2 -52.8,0.3 -58.2,2.3 -7.4,2.8 -14.9,9.6 -18.4,16.8 -2.5,5 -2.8,6.8 -2.8,14.7 0.1,7.7 0.5,9.7 2.7,14 3.6,7 9.1,12.3 16.2,15.6l6.1,2.9 53.8,-0 53.7,-0 0,31 0,31 -76.3,-0c-86.1,-0 -83.1,0.2 -90.4,-7.2 -7.8,-8 -7.3,-0.8 -7.3,-104.8l0,-93 87,-0 87,-0 -0.2,38.2zM847,624c0,102.7 0.3,96.9 -6.3,103.8 -1.8,1.9 -5,4.3 -7.2,5.5l-4,2.2 -91.2,0.3 -91.3,0.2 0,-31 0,-31 65,-0c63,-0 65.1,-0.1 70.4,-2.1 6.9,-2.5 14.9,-9.6 18.4,-16.3 2.4,-4.5 2.7,-6.2 2.7,-14.6 -0.1,-8.3 -0.4,-10.1 -2.7,-14.5 -4.6,-8.8 -14.4,-16.4 -22.8,-17.9 -1.9,-0.4 -32.1,-0.8 -67,-1 -34.9,-0.3 -63.6,-0.5 -63.7,-0.5 -0.6,-0.2 -0.2,-74.8 0.4,-75.4 0.3,-0.4 45.3,-0.7 100,-0.7l99.3,-0 0,93z"/>
    <path d="M482.3,336.4c-9.9,3.2 -17.1,9.5 -22.4,19.6 -2,3.9 -2.4,5.9 -2.4,14.5 0,9.3 0.2,10.5 3.3,16.7 3.6,7.4 9.5,13.2 17,16.9 4,2 6.2,2.4 15.2,2.4 9,-0 11.2,-0.3 15.2,-2.3 7,-3.5 13.1,-9.3 16.9,-16.4 3.2,-6 3.4,-6.8 3.4,-16.3 0,-9 -0.3,-10.6 -2.8,-15.5 -6.4,-12.6 -18.1,-20.2 -31.7,-20.7 -4.4,-0.2 -9.3,0.3 -11.7,1.1z"/>
    <path d="M733.2,319c-21.7,5.7 -37.5,22.6 -41.9,44.9 -7.8,39.2 28.3,74 67.9,65.6 25.6,-5.4 44.9,-29 44.8,-54.8 -0.1,-15.4 -6.1,-29.8 -17,-40.7 -7.6,-7.6 -15.8,-12.3 -26.6,-15 -9.6,-2.5 -17.7,-2.5 -27.2,-0z"/>
  </g>
  <g fill="#000000" transform="translate(-11 -377) scale(0.48)">
    <path d="M329.3,941.4c-9.9,3.2 -14.1,9.6 -15,22.6l-0.6,7.9 -6.1,0.3 -6.1,0.3 -0.3,7.2 -0.3,7.3 6.5,-0 6.6,-0 0.2,28.7 0.3,28.8 9,-0 9,-0 0.3,-28.8 0.2,-28.7 9,-0 9,-0 0,-7.5 0,-7.5 -9.1,-0 -9.1,-0 0.4,-6.1c0.6,-8.5 2.8,-10.3 11.4,-9.6l6.2,0.5 0.6,-4.6c1,-7.4 0.7,-9.9 -1.1,-10.7 -3.6,-1.4 -16.8,-1.5 -21,-0.1z"/>
    <path d="M480.8,940.7c-4.3,0.6 -7.8,5.6 -7.8,11 0,3.6 0.6,5 2.9,7.4 5.8,5.7 16.9,2.7 18.6,-5.1 1.8,-8.2 -4.8,-14.5 -13.7,-13.3z"/>
    <path d="M439,993l0,52.1 9.3,-0.3 9.2,-0.3 0,-51.5 0,-51.5 -9.2,-0.3 -9.3,-0.3 0,52.1z"/>
    <path d="M382.4,971.9c-9.7,2.5 -19.5,10.7 -23.7,19.9 -1.9,4 -2.2,6.5 -2.2,16.7 0,11.6 0.1,12.3 3.3,18.7 3.7,7.6 8.2,12 16.2,15.7 5,2.3 6.6,2.6 17,2.5 9.3,-0 12.4,-0.4 16,-2.1 6.1,-2.7 10.5,-6.6 13.7,-12 3.1,-5.4 2.8,-5.7 -6.9,-7.4l-6.7,-1.2 -2.9,3.1c-3.8,4 -6.9,5.2 -14.1,5.2 -8.8,-0 -15.5,-5.3 -16.8,-13.3l-0.6,-3.7 25.9,-0.2 25.9,-0.3 -0.3,-7c-0.5,-11.8 -4.2,-21.5 -10.3,-27.2 -4.9,-4.5 -13.8,-7.7 -22.4,-7.9 -4.4,-0.2 -9.4,0.1 -11.1,0.5zM400,987.9c3.5,1.8 8,8.1 8,11.3 0,1.6 -1.5,1.8 -16.6,1.8l-16.6,-0 0.7,-2.8c1.1,-4.5 4.3,-8.9 7.8,-10.6 4.4,-2.1 12.4,-2 16.7,0.3z"/>
    <path d="M541,971.9c-4.4,1.4 -8.4,3.8 -11,6.6l-2.5,2.7 -0.5,-4.4 -0.5,-4.3 -8.5,-0 -8.5,-0 0,49.5 0,49.5 9,-0 9,-0 0.3,-17.2 0.2,-17.3 4.4,3.4c11.5,8.8 29.9,6.7 40,-4.4 9.4,-10.4 11.9,-27.3 6.5,-43.7 -4.1,-12.4 -14.7,-20.3 -28.2,-20.9 -4,-0.2 -8.3,-0 -9.7,0.5zM552.3,988.1c9.2,4.8 12.9,17 9.1,29.9 -5.4,18.3 -29.4,16.4 -33.5,-2.7 -2.3,-11.1 1.2,-21.9 8.5,-26.4 3.5,-2.1 12.4,-2.6 15.9,-0.8z"/>
    <path d="M614,973.2c-5,1.7 -7.8,3.5 -12.1,7.8 -8,7.9 -10.3,14.3 -10.3,28 0,9.4 0.3,11.2 2.9,16.8 3.9,8.7 11.4,15.5 20.2,18.2 17.5,5.4 36.9,-0.5 43.4,-13.2 1.1,-2.2 1.8,-4.2 1.5,-4.5 -0.3,-0.3 -3.9,-1.3 -8,-2.3l-7.4,-1.7 -2.2,2.9c-1.2,1.7 -3.7,3.6 -5.6,4.4 -4.5,1.9 -12.8,1.8 -17.1,-0.3 -3.9,-1.8 -7.8,-7.1 -8.8,-12.1l-0.7,-3.2 26.3,-0 26.2,-0 -0.6,-8.3c-0.9,-15.2 -7.1,-25.6 -18.3,-31.1 -8.2,-4 -20.1,-4.6 -29.4,-1.4zM635,987.8c4,2 8,7.4 8,10.8l0,2.4 -16.6,-0 -16.5,-0 0.7,-2.3c1.8,-6 4.9,-9.8 9.4,-11.6 4,-1.6 11.2,-1.2 15,0.7z"/>
    <path d="M693.1,972.5c-9.2,2.6 -14.7,6.9 -17.6,13.9 -0.9,2.1 -1.5,4 -1.3,4.1 0.4,0.5 13.7,3.5 15.2,3.5 0.7,-0 1.9,-1.1 2.6,-2.5 3.9,-7.3 21.5,-7.3 24.9,0.1 0.6,1.4 1.1,4 1.1,5.8l0,3.4 -11.7,0.7c-21.2,1.3 -30.7,6.2 -33.9,17.3 -4.4,15.1 6.3,27.2 24.1,27.2 7.1,-0 14.9,-2.5 19,-6.1l3.4,-3 0.3,3.8 0.3,3.8 8.5,-0 8.5,-0 0,-27.5c0,-26.3 -0.1,-27.7 -2.2,-31.5 -5,-9.3 -13.1,-13.6 -26.8,-14.1 -6,-0.3 -10.8,0.1 -14.4,1.1zM718,1018c0,8.4 -6.7,14 -16.9,14 -8.8,-0 -13.8,-6.7 -9.5,-12.8 2.2,-3.1 5.5,-4.3 14.4,-5.1 12.9,-1.2 12,-1.5 12,3.9z"/>
    <path d="M783.5,972.4c-5.7,1.8 -8.3,3.6 -10.8,7.6l-2.2,3.5 -0.5,-5.5 -0.5,-5.5 -8.5,-0 -8.5,-0 0,36 0,36 9,-0 9,-0 0.5,-22c0.4,-19.7 0.7,-22.4 2.5,-25.5 3,-5.1 9.5,-8.2 16.5,-7.8l5.5,0.3 0.3,-8.4c0.2,-6.1 -0.1,-8.7 -1,-9.2 -1.8,-1.2 -6.6,-1 -11.3,0.5z"/>
    <path d="M835.2,972.7c-2.3,0.8 -5.9,3 -7.9,4.9 -2,1.9 -3.7,3.4 -3.9,3.4 -0.2,-0 -0.4,-2 -0.4,-4.5l0,-4.6 -8.7,0.3 -8.8,0.3 0,49.5 0,49.5 9,-0 9,-0 0.3,-17.2 0.2,-17.1 5.1,3.4c6.5,4.3 11.9,5.7 19.7,5.1 18.9,-1.5 30.7,-18.2 28.9,-41 -1.6,-21 -14.1,-33.9 -32.7,-33.6 -3,-0 -7.4,0.7 -9.8,1.6zM848.9,988.5c9.5,4.8 13,21.9 7,33.6 -5,9.8 -18.4,11.6 -26.5,3.5 -4.2,-4.2 -5.7,-10.1 -5.2,-19.8 0.5,-8.9 3.4,-14.4 8.9,-17.1 4.2,-2.1 12.1,-2.2 15.8,-0.2z"/>
    <path d="M909.3,972.4c-8.9,2.2 -17.1,9.1 -18.8,15.8 -0.8,2.9 -1.3,2.6 8.5,4.8 6.6,1.4 7.6,1.3 8.8,-1.6 2.5,-5.2 14.7,-7.2 21,-3.4 3.5,2.1 5.2,5.4 5.2,9.9l0,2.8 -11.8,0.6c-24.6,1.4 -35.2,8.3 -35.2,23.1 0,9.1 3.3,14.5 11.5,18.9 3.3,1.8 5.6,2.2 13.5,2.2 10.4,-0.1 15.1,-1.7 20,-7l2.5,-2.7 0.5,4.4 0.5,4.3 8.3,0.3 8.3,0.3 -0.3,-28.3 -0.3,-28.3 -2.8,-4.7c-1.5,-2.6 -4.1,-5.7 -5.8,-6.9 -7.5,-5.3 -22,-7.3 -33.6,-4.5zM933.7,1018.5c-0.9,8.5 -7.2,13.5 -16.9,13.5 -5.9,-0 -9.4,-1.8 -10.8,-5.6 -1.4,-3.5 0.7,-8.2 4.3,-10.1 2.9,-1.5 21.1,-3.4 23.1,-2.5 0.4,0.3 0.6,2.4 0.3,4.7z"/>
    <path d="M474.5,973.2c-0.3,0.7 -0.4,17.1 -0.3,36.3l0.3,35 9,-0 9,-0 0,-36 0,-36 -8.8,-0.3c-6.4,-0.2 -8.9,0.1 -9.2,1z"/>
  </g>
</svg>
