<?xml version="1.0" standalone="no"?>
<svg xmlns="http://www.w3.org/2000/svg" version="1.1" width="496" height="496">
	<!-- Created with https://api.qrserver.com (QR Code API, see goQR.me/api for information) -->
	<title>QR Code</title>
	<desc>https://apps.apple.com/app/fortuna/id6762291676</desc>
	<rect style="fill:rgb(255, 255, 255);fill-opacity:1" x="0" y="0" width="496" height="496" />
	<g id="elements">
		<path style="fill:rgb(15, 48, 20)" d="M 16,16 l 16,0 0,16 -16,0 z M 32,16 l 16,0 0,16 -16,0 z M 48,16 l 16,0 0,16 -16,0 z M 64,16 l 16,0 0,16 -16,0 z M 80,16 l 16,0 0,16 -16,0 z M 96,16 l 16,0 0,16 -16,0 z M 112,16 l 16,0 0,16 -16,0 z M 160,16 l 16,0 0,16 -16,0 z M 272,16 l 16,0 0,16 -16,0 z M 288,16 l 16,0 0,16 -16,0 z M 304,16 l 16,0 0,16 -16,0 z M 320,16 l 16,0 0,16 -16,0 z M 368,16 l 16,0 0,16 -16,0 z M 384,16 l 16,0 0,16 -16,0 z M 400,16 l 16,0 0,16 -16,0 z M 416,16 l 16,0 0,16 -16,0 z M 432,16 l 16,0 0,16 -16,0 z M 448,16 l 16,0 0,16 -16,0 z M 464,16 l 16,0 0,16 -16,0 z M 16,32 l 16,0 0,16 -16,0 z M 112,32 l 16,0 0,16 -16,0 z M 144,32 l 16,0 0,16 -16,0 z M 160,32 l 16,0 0,16 -16,0 z M 192,32 l 16,0 0,16 -16,0 z M 208,32 l 16,0 0,16 -16,0 z M 240,32 l 16,0 0,16 -16,0 z M 256,32 l 16,0 0,16 -16,0 z M 272,32 l 16,0 0,16 -16,0 z M 288,32 l 16,0 0,16 -16,0 z M 336,32 l 16,0 0,16 -16,0 z M 368,32 l 16,0 0,16 -16,0 z M 464,32 l 16,0 0,16 -16,0 z M 16,48 l 16,0 0,16 -16,0 z M 48,48 l 16,0 0,16 -16,0 z M 64,48 l 16,0 0,16 -16,0 z M 80,48 l 16,0 0,16 -16,0 z M 112,48 l 16,0 0,16 -16,0 z M 160,48 l 16,0 0,16 -16,0 z M 176,48 l 16,0 0,16 -16,0 z M 192,48 l 16,0 0,16 -16,0 z M 256,48 l 16,0 0,16 -16,0 z M 336,48 l 16,0 0,16 -16,0 z M 368,48 l 16,0 0,16 -16,0 z M 400,48 l 16,0 0,16 -16,0 z M 416,48 l 16,0 0,16 -16,0 z M 432,48 l 16,0 0,16 -16,0 z M 464,48 l 16,0 0,16 -16,0 z M 16,64 l 16,0 0,16 -16,0 z M 48,64 l 16,0 0,16 -16,0 z M 64,64 l 16,0 0,16 -16,0 z M 80,64 l 16,0 0,16 -16,0 z M 112,64 l 16,0 0,16 -16,0 z M 144,64 l 16,0 0,16 -16,0 z M 160,64 l 16,0 0,16 -16,0 z M 192,64 l 16,0 0,16 -16,0 z M 288,64 l 16,0 0,16 -16,0 z M 320,64 l 16,0 0,16 -16,0 z M 368,64 l 16,0 0,16 -16,0 z M 400,64 l 16,0 0,16 -16,0 z M 416,64 l 16,0 0,16 -16,0 z M 432,64 l 16,0 0,16 -16,0 z M 464,64 l 16,0 0,16 -16,0 z M 16,80 l 16,0 0,16 -16,0 z M 48,80 l 16,0 0,16 -16,0 z M 64,80 l 16,0 0,16 -16,0 z M 80,80 l 16,0 0,16 -16,0 z M 112,80 l 16,0 0,16 -16,0 z M 176,80 l 16,0 0,16 -16,0 z M 208,80 l 16,0 0,16 -16,0 z M 240,80 l 16,0 0,16 -16,0 z M 272,80 l 16,0 0,16 -16,0 z M 304,80 l 16,0 0,16 -16,0 z M 320,80 l 16,0 0,16 -16,0 z M 336,80 l 16,0 0,16 -16,0 z M 368,80 l 16,0 0,16 -16,0 z M 400,80 l 16,0 0,16 -16,0 z M 416,80 l 16,0 0,16 -16,0 z M 432,80 l 16,0 0,16 -16,0 z M 464,80 l 16,0 0,16 -16,0 z M 16,96 l 16,0 0,16 -16,0 z M 112,96 l 16,0 0,16 -16,0 z M 144,96 l 16,0 0,16 -16,0 z M 176,96 l 16,0 0,16 -16,0 z M 256,96 l 16,0 0,16 -16,0 z M 272,96 l 16,0 0,16 -16,0 z M 304,96 l 16,0 0,16 -16,0 z M 336,96 l 16,0 0,16 -16,0 z M 368,96 l 16,0 0,16 -16,0 z M 464,96 l 16,0 0,16 -16,0 z M 16,112 l 16,0 0,16 -16,0 z M 32,112 l 16,0 0,16 -16,0 z M 48,112 l 16,0 0,16 -16,0 z M 64,112 l 16,0 0,16 -16,0 z M 80,112 l 16,0 0,16 -16,0 z M 96,112 l 16,0 0,16 -16,0 z M 112,112 l 16,0 0,16 -16,0 z M 144,112 l 16,0 0,16 -16,0 z M 176,112 l 16,0 0,16 -16,0 z M 208,112 l 16,0 0,16 -16,0 z M 240,112 l 16,0 0,16 -16,0 z M 272,112 l 16,0 0,16 -16,0 z M 304,112 l 16,0 0,16 -16,0 z M 336,112 l 16,0 0,16 -16,0 z M 368,112 l 16,0 0,16 -16,0 z M 384,112 l 16,0 0,16 -16,0 z M 400,112 l 16,0 0,16 -16,0 z M 416,112 l 16,0 0,16 -16,0 z M 432,112 l 16,0 0,16 -16,0 z M 448,112 l 16,0 0,16 -16,0 z M 464,112 l 16,0 0,16 -16,0 z M 208,128 l 16,0 0,16 -16,0 z M 272,128 l 16,0 0,16 -16,0 z M 320,128 l 16,0 0,16 -16,0 z M 336,128 l 16,0 0,16 -16,0 z M 16,144 l 16,0 0,16 -16,0 z M 32,144 l 16,0 0,16 -16,0 z M 48,144 l 16,0 0,16 -16,0 z M 64,144 l 16,0 0,16 -16,0 z M 80,144 l 16,0 0,16 -16,0 z M 112,144 l 16,0 0,16 -16,0 z M 128,144 l 16,0 0,16 -16,0 z M 144,144 l 16,0 0,16 -16,0 z M 160,144 l 16,0 0,16 -16,0 z M 176,144 l 16,0 0,16 -16,0 z M 208,144 l 16,0 0,16 -16,0 z M 224,144 l 16,0 0,16 -16,0 z M 288,144 l 16,0 0,16 -16,0 z M 320,144 l 16,0 0,16 -16,0 z M 352,144 l 16,0 0,16 -16,0 z M 384,144 l 16,0 0,16 -16,0 z M 416,144 l 16,0 0,16 -16,0 z M 448,144 l 16,0 0,16 -16,0 z M 16,160 l 16,0 0,16 -16,0 z M 32,160 l 16,0 0,16 -16,0 z M 80,160 l 16,0 0,16 -16,0 z M 96,160 l 16,0 0,16 -16,0 z M 128,160 l 16,0 0,16 -16,0 z M 160,160 l 16,0 0,16 -16,0 z M 224,160 l 16,0 0,16 -16,0 z M 320,160 l 16,0 0,16 -16,0 z M 336,160 l 16,0 0,16 -16,0 z M 352,160 l 16,0 0,16 -16,0 z M 368,160 l 16,0 0,16 -16,0 z M 400,160 l 16,0 0,16 -16,0 z M 464,160 l 16,0 0,16 -16,0 z M 48,176 l 16,0 0,16 -16,0 z M 64,176 l 16,0 0,16 -16,0 z M 112,176 l 16,0 0,16 -16,0 z M 160,176 l 16,0 0,16 -16,0 z M 192,176 l 16,0 0,16 -16,0 z M 208,176 l 16,0 0,16 -16,0 z M 224,176 l 16,0 0,16 -16,0 z M 256,176 l 16,0 0,16 -16,0 z M 272,176 l 16,0 0,16 -16,0 z M 304,176 l 16,0 0,16 -16,0 z M 336,176 l 16,0 0,16 -16,0 z M 368,176 l 16,0 0,16 -16,0 z M 384,176 l 16,0 0,16 -16,0 z M 16,192 l 16,0 0,16 -16,0 z M 48,192 l 16,0 0,16 -16,0 z M 64,192 l 16,0 0,16 -16,0 z M 80,192 l 16,0 0,16 -16,0 z M 96,192 l 16,0 0,16 -16,0 z M 144,192 l 16,0 0,16 -16,0 z M 160,192 l 16,0 0,16 -16,0 z M 176,192 l 16,0 0,16 -16,0 z M 192,192 l 16,0 0,16 -16,0 z M 224,192 l 16,0 0,16 -16,0 z M 256,192 l 16,0 0,16 -16,0 z M 304,192 l 16,0 0,16 -16,0 z M 320,192 l 16,0 0,16 -16,0 z M 352,192 l 16,0 0,16 -16,0 z M 368,192 l 16,0 0,16 -16,0 z M 400,192 l 16,0 0,16 -16,0 z M 416,192 l 16,0 0,16 -16,0 z M 448,192 l 16,0 0,16 -16,0 z M 16,208 l 16,0 0,16 -16,0 z M 64,208 l 16,0 0,16 -16,0 z M 80,208 l 16,0 0,16 -16,0 z M 96,208 l 16,0 0,16 -16,0 z M 112,208 l 16,0 0,16 -16,0 z M 160,208 l 16,0 0,16 -16,0 z M 192,208 l 16,0 0,16 -16,0 z M 224,208 l 16,0 0,16 -16,0 z M 256,208 l 16,0 0,16 -16,0 z M 288,208 l 16,0 0,16 -16,0 z M 384,208 l 16,0 0,16 -16,0 z M 416,208 l 16,0 0,16 -16,0 z M 432,208 l 16,0 0,16 -16,0 z M 16,224 l 16,0 0,16 -16,0 z M 32,224 l 16,0 0,16 -16,0 z M 64,224 l 16,0 0,16 -16,0 z M 80,224 l 16,0 0,16 -16,0 z M 144,224 l 16,0 0,16 -16,0 z M 176,224 l 16,0 0,16 -16,0 z M 208,224 l 16,0 0,16 -16,0 z M 272,224 l 16,0 0,16 -16,0 z M 320,224 l 16,0 0,16 -16,0 z M 336,224 l 16,0 0,16 -16,0 z M 352,224 l 16,0 0,16 -16,0 z M 368,224 l 16,0 0,16 -16,0 z M 384,224 l 16,0 0,16 -16,0 z M 400,224 l 16,0 0,16 -16,0 z M 464,224 l 16,0 0,16 -16,0 z M 16,240 l 16,0 0,16 -16,0 z M 32,240 l 16,0 0,16 -16,0 z M 80,240 l 16,0 0,16 -16,0 z M 112,240 l 16,0 0,16 -16,0 z M 128,240 l 16,0 0,16 -16,0 z M 176,240 l 16,0 0,16 -16,0 z M 240,240 l 16,0 0,16 -16,0 z M 256,240 l 16,0 0,16 -16,0 z M 304,240 l 16,0 0,16 -16,0 z M 352,240 l 16,0 0,16 -16,0 z M 400,240 l 16,0 0,16 -16,0 z M 416,240 l 16,0 0,16 -16,0 z M 432,240 l 16,0 0,16 -16,0 z M 64,256 l 16,0 0,16 -16,0 z M 80,256 l 16,0 0,16 -16,0 z M 96,256 l 16,0 0,16 -16,0 z M 144,256 l 16,0 0,16 -16,0 z M 160,256 l 16,0 0,16 -16,0 z M 176,256 l 16,0 0,16 -16,0 z M 208,256 l 16,0 0,16 -16,0 z M 272,256 l 16,0 0,16 -16,0 z M 304,256 l 16,0 0,16 -16,0 z M 320,256 l 16,0 0,16 -16,0 z M 336,256 l 16,0 0,16 -16,0 z M 400,256 l 16,0 0,16 -16,0 z M 448,256 l 16,0 0,16 -16,0 z M 16,272 l 16,0 0,16 -16,0 z M 32,272 l 16,0 0,16 -16,0 z M 64,272 l 16,0 0,16 -16,0 z M 80,272 l 16,0 0,16 -16,0 z M 112,272 l 16,0 0,16 -16,0 z M 160,272 l 16,0 0,16 -16,0 z M 208,272 l 16,0 0,16 -16,0 z M 224,272 l 16,0 0,16 -16,0 z M 288,272 l 16,0 0,16 -16,0 z M 304,272 l 16,0 0,16 -16,0 z M 320,272 l 16,0 0,16 -16,0 z M 384,272 l 16,0 0,16 -16,0 z M 416,272 l 16,0 0,16 -16,0 z M 432,272 l 16,0 0,16 -16,0 z M 16,288 l 16,0 0,16 -16,0 z M 48,288 l 16,0 0,16 -16,0 z M 80,288 l 16,0 0,16 -16,0 z M 96,288 l 16,0 0,16 -16,0 z M 128,288 l 16,0 0,16 -16,0 z M 144,288 l 16,0 0,16 -16,0 z M 176,288 l 16,0 0,16 -16,0 z M 224,288 l 16,0 0,16 -16,0 z M 240,288 l 16,0 0,16 -16,0 z M 272,288 l 16,0 0,16 -16,0 z M 288,288 l 16,0 0,16 -16,0 z M 304,288 l 16,0 0,16 -16,0 z M 320,288 l 16,0 0,16 -16,0 z M 368,288 l 16,0 0,16 -16,0 z M 384,288 l 16,0 0,16 -16,0 z M 400,288 l 16,0 0,16 -16,0 z M 432,288 l 16,0 0,16 -16,0 z M 464,288 l 16,0 0,16 -16,0 z M 16,304 l 16,0 0,16 -16,0 z M 48,304 l 16,0 0,16 -16,0 z M 64,304 l 16,0 0,16 -16,0 z M 96,304 l 16,0 0,16 -16,0 z M 112,304 l 16,0 0,16 -16,0 z M 144,304 l 16,0 0,16 -16,0 z M 160,304 l 16,0 0,16 -16,0 z M 176,304 l 16,0 0,16 -16,0 z M 192,304 l 16,0 0,16 -16,0 z M 208,304 l 16,0 0,16 -16,0 z M 256,304 l 16,0 0,16 -16,0 z M 272,304 l 16,0 0,16 -16,0 z M 288,304 l 16,0 0,16 -16,0 z M 336,304 l 16,0 0,16 -16,0 z M 352,304 l 16,0 0,16 -16,0 z M 400,304 l 16,0 0,16 -16,0 z M 432,304 l 16,0 0,16 -16,0 z M 16,320 l 16,0 0,16 -16,0 z M 64,320 l 16,0 0,16 -16,0 z M 80,320 l 16,0 0,16 -16,0 z M 96,320 l 16,0 0,16 -16,0 z M 144,320 l 16,0 0,16 -16,0 z M 160,320 l 16,0 0,16 -16,0 z M 176,320 l 16,0 0,16 -16,0 z M 192,320 l 16,0 0,16 -16,0 z M 240,320 l 16,0 0,16 -16,0 z M 256,320 l 16,0 0,16 -16,0 z M 272,320 l 16,0 0,16 -16,0 z M 336,320 l 16,0 0,16 -16,0 z M 352,320 l 16,0 0,16 -16,0 z M 400,320 l 16,0 0,16 -16,0 z M 448,320 l 16,0 0,16 -16,0 z M 16,336 l 16,0 0,16 -16,0 z M 48,336 l 16,0 0,16 -16,0 z M 80,336 l 16,0 0,16 -16,0 z M 96,336 l 16,0 0,16 -16,0 z M 112,336 l 16,0 0,16 -16,0 z M 144,336 l 16,0 0,16 -16,0 z M 160,336 l 16,0 0,16 -16,0 z M 176,336 l 16,0 0,16 -16,0 z M 192,336 l 16,0 0,16 -16,0 z M 240,336 l 16,0 0,16 -16,0 z M 256,336 l 16,0 0,16 -16,0 z M 272,336 l 16,0 0,16 -16,0 z M 288,336 l 16,0 0,16 -16,0 z M 336,336 l 16,0 0,16 -16,0 z M 352,336 l 16,0 0,16 -16,0 z M 368,336 l 16,0 0,16 -16,0 z M 384,336 l 16,0 0,16 -16,0 z M 400,336 l 16,0 0,16 -16,0 z M 432,336 l 16,0 0,16 -16,0 z M 448,336 l 16,0 0,16 -16,0 z M 464,336 l 16,0 0,16 -16,0 z M 144,352 l 16,0 0,16 -16,0 z M 160,352 l 16,0 0,16 -16,0 z M 208,352 l 16,0 0,16 -16,0 z M 224,352 l 16,0 0,16 -16,0 z M 272,352 l 16,0 0,16 -16,0 z M 304,352 l 16,0 0,16 -16,0 z M 336,352 l 16,0 0,16 -16,0 z M 400,352 l 16,0 0,16 -16,0 z M 416,352 l 16,0 0,16 -16,0 z M 432,352 l 16,0 0,16 -16,0 z M 448,352 l 16,0 0,16 -16,0 z M 464,352 l 16,0 0,16 -16,0 z M 16,368 l 16,0 0,16 -16,0 z M 32,368 l 16,0 0,16 -16,0 z M 48,368 l 16,0 0,16 -16,0 z M 64,368 l 16,0 0,16 -16,0 z M 80,368 l 16,0 0,16 -16,0 z M 96,368 l 16,0 0,16 -16,0 z M 112,368 l 16,0 0,16 -16,0 z M 144,368 l 16,0 0,16 -16,0 z M 224,368 l 16,0 0,16 -16,0 z M 256,368 l 16,0 0,16 -16,0 z M 288,368 l 16,0 0,16 -16,0 z M 320,368 l 16,0 0,16 -16,0 z M 336,368 l 16,0 0,16 -16,0 z M 368,368 l 16,0 0,16 -16,0 z M 400,368 l 16,0 0,16 -16,0 z M 416,368 l 16,0 0,16 -16,0 z M 432,368 l 16,0 0,16 -16,0 z M 16,384 l 16,0 0,16 -16,0 z M 112,384 l 16,0 0,16 -16,0 z M 160,384 l 16,0 0,16 -16,0 z M 176,384 l 16,0 0,16 -16,0 z M 208,384 l 16,0 0,16 -16,0 z M 256,384 l 16,0 0,16 -16,0 z M 272,384 l 16,0 0,16 -16,0 z M 304,384 l 16,0 0,16 -16,0 z M 320,384 l 16,0 0,16 -16,0 z M 336,384 l 16,0 0,16 -16,0 z M 400,384 l 16,0 0,16 -16,0 z M 16,400 l 16,0 0,16 -16,0 z M 48,400 l 16,0 0,16 -16,0 z M 64,400 l 16,0 0,16 -16,0 z M 80,400 l 16,0 0,16 -16,0 z M 112,400 l 16,0 0,16 -16,0 z M 144,400 l 16,0 0,16 -16,0 z M 160,400 l 16,0 0,16 -16,0 z M 176,400 l 16,0 0,16 -16,0 z M 208,400 l 16,0 0,16 -16,0 z M 224,400 l 16,0 0,16 -16,0 z M 240,400 l 16,0 0,16 -16,0 z M 256,400 l 16,0 0,16 -16,0 z M 272,400 l 16,0 0,16 -16,0 z M 288,400 l 16,0 0,16 -16,0 z M 336,400 l 16,0 0,16 -16,0 z M 352,400 l 16,0 0,16 -16,0 z M 368,400 l 16,0 0,16 -16,0 z M 384,400 l 16,0 0,16 -16,0 z M 400,400 l 16,0 0,16 -16,0 z M 432,400 l 16,0 0,16 -16,0 z M 16,416 l 16,0 0,16 -16,0 z M 48,416 l 16,0 0,16 -16,0 z M 64,416 l 16,0 0,16 -16,0 z M 80,416 l 16,0 0,16 -16,0 z M 112,416 l 16,0 0,16 -16,0 z M 144,416 l 16,0 0,16 -16,0 z M 240,416 l 16,0 0,16 -16,0 z M 272,416 l 16,0 0,16 -16,0 z M 288,416 l 16,0 0,16 -16,0 z M 304,416 l 16,0 0,16 -16,0 z M 384,416 l 16,0 0,16 -16,0 z M 416,416 l 16,0 0,16 -16,0 z M 432,416 l 16,0 0,16 -16,0 z M 448,416 l 16,0 0,16 -16,0 z M 464,416 l 16,0 0,16 -16,0 z M 16,432 l 16,0 0,16 -16,0 z M 48,432 l 16,0 0,16 -16,0 z M 64,432 l 16,0 0,16 -16,0 z M 80,432 l 16,0 0,16 -16,0 z M 112,432 l 16,0 0,16 -16,0 z M 144,432 l 16,0 0,16 -16,0 z M 176,432 l 16,0 0,16 -16,0 z M 192,432 l 16,0 0,16 -16,0 z M 208,432 l 16,0 0,16 -16,0 z M 224,432 l 16,0 0,16 -16,0 z M 240,432 l 16,0 0,16 -16,0 z M 256,432 l 16,0 0,16 -16,0 z M 288,432 l 16,0 0,16 -16,0 z M 320,432 l 16,0 0,16 -16,0 z M 336,432 l 16,0 0,16 -16,0 z M 368,432 l 16,0 0,16 -16,0 z M 384,432 l 16,0 0,16 -16,0 z M 400,432 l 16,0 0,16 -16,0 z M 416,432 l 16,0 0,16 -16,0 z M 432,432 l 16,0 0,16 -16,0 z M 448,432 l 16,0 0,16 -16,0 z M 16,448 l 16,0 0,16 -16,0 z M 112,448 l 16,0 0,16 -16,0 z M 144,448 l 16,0 0,16 -16,0 z M 176,448 l 16,0 0,16 -16,0 z M 192,448 l 16,0 0,16 -16,0 z M 336,448 l 16,0 0,16 -16,0 z M 352,448 l 16,0 0,16 -16,0 z M 384,448 l 16,0 0,16 -16,0 z M 400,448 l 16,0 0,16 -16,0 z M 416,448 l 16,0 0,16 -16,0 z M 448,448 l 16,0 0,16 -16,0 z M 16,464 l 16,0 0,16 -16,0 z M 32,464 l 16,0 0,16 -16,0 z M 48,464 l 16,0 0,16 -16,0 z M 64,464 l 16,0 0,16 -16,0 z M 80,464 l 16,0 0,16 -16,0 z M 96,464 l 16,0 0,16 -16,0 z M 112,464 l 16,0 0,16 -16,0 z M 144,464 l 16,0 0,16 -16,0 z M 160,464 l 16,0 0,16 -16,0 z M 176,464 l 16,0 0,16 -16,0 z M 192,464 l 16,0 0,16 -16,0 z M 208,464 l 16,0 0,16 -16,0 z M 256,464 l 16,0 0,16 -16,0 z M 272,464 l 16,0 0,16 -16,0 z M 288,464 l 16,0 0,16 -16,0 z M 320,464 l 16,0 0,16 -16,0 z M 352,464 l 16,0 0,16 -16,0 z M 400,464 l 16,0 0,16 -16,0 z M 432,464 l 16,0 0,16 -16,0 z " />
	</g>
</svg>
